<svg width="42" height="42" viewBox="0 0 42 42" fill="none" xmlns="http://www.w3.org/2000/svg">
<g clip-path="url(#clip0_7233_10817)">
<path d="M42.0004 21.1005C41.9557 32.8007 32.5777 42.0447 20.8106 42C9.33369 41.9331 -0.0666298 32.4434 0.000355794 20.9442C0.0673414 9.44502 9.53465 -0.0222891 20.9669 3.94155e-05C32.6894 0.022368 42.045 9.42269 42.0004 21.1005ZM29.0275 24.9634C29.0275 20.8996 29.0275 16.8581 29.0275 12.7943C29.0275 12.437 29.2284 11.9012 28.7595 11.7225C28.2683 11.5439 27.9334 11.9905 27.6431 12.3031C26.616 13.5088 26.348 15.0048 26.3257 16.5232C26.2811 19.7831 26.3034 23.0208 26.3034 26.2807C26.3034 26.9729 26.3034 27.5981 27.2635 27.5758C27.911 27.5535 27.8887 28.0894 27.8887 28.5583C27.8887 28.9378 27.9557 29.3398 27.4421 29.563C25.9685 30.1436 24.3161 29.1835 24.2938 27.5981C24.2492 23.7353 24.1822 19.8948 24.3161 16.0319C24.4055 13.6428 25.0307 11.3429 27.3305 9.9809C29.4071 8.75283 31.1264 9.53433 31.0817 12.0798C30.9477 19.8948 31.037 27.6874 31.0594 35.5024C31.0594 35.882 30.8361 36.3956 31.2827 36.5965C31.7069 36.7975 31.9972 36.3509 32.3098 36.1276C37.8026 31.8182 40.4597 26.1691 39.8345 19.2026C38.8744 8.46256 28.9158 0.736881 18.2874 2.32221C7.56973 3.90754 0.335284 14.268 2.59047 24.9187C3.88552 30.9697 7.45809 35.3238 12.9956 38.0925C14.179 38.6954 14.4469 38.3605 14.4023 37.1547C14.3353 35.3461 14.3353 33.5598 14.4023 31.7512C14.4469 30.6795 14.179 30.2329 13.0179 30.0319C10.7627 29.6524 9.46766 28.1787 9.5793 26.3477C9.86957 21.5471 10.2045 16.7465 10.5171 11.9681C10.5618 11.3429 10.6287 10.7847 11.5442 10.874C12.415 10.9634 12.616 11.3429 12.549 12.1468C12.348 14.9378 12.1917 17.7289 12.0131 20.5423C11.9015 22.3956 11.7228 24.2265 11.6335 26.0798C11.5665 27.2409 12.5043 28.201 13.6878 28.134C15.0051 28.0447 14.3576 26.9729 14.3576 26.3924C14.4246 21.748 14.3799 17.0814 14.3799 12.437C14.3799 11.6779 14.2236 10.9187 15.4517 10.941C16.6128 10.941 16.4118 11.7002 16.4118 12.3701C16.4118 17.126 16.4118 21.882 16.4118 26.638C16.4118 28.2457 16.9701 28.5583 18.3991 27.7321C18.9796 27.3972 19.2699 26.9506 19.2029 26.2584C19.1136 25.1197 19.0913 23.9586 19.0243 22.8198C18.7787 19.2249 18.5554 15.63 18.2651 12.0351C18.1981 11.142 18.6224 10.941 19.3592 10.8517C20.163 10.7624 20.2747 11.1643 20.297 11.8118C20.5873 16.3445 20.9222 20.8996 21.1678 25.4323C21.3241 28.3573 20.431 29.563 17.5283 30.0766C16.5012 30.2552 16.3672 30.7018 16.3895 31.5503C16.4342 33.6938 16.4565 35.8597 16.3672 38.0032C16.3225 39.142 16.8361 39.4546 17.8185 39.6109C21.1455 40.1468 24.3831 39.8118 27.5761 38.6954C28.6256 38.3382 29.0498 37.8023 29.0275 36.6412C28.9828 32.7783 29.0275 28.8709 29.0275 24.9634Z" fill="#29221F"/>
</g>
<defs>
<clipPath id="clip0_7233_10817">
<rect width="42" height="42" fill="white"/>
</clipPath>
</defs>
</svg>
