<svg width="42" height="42" viewBox="0 0 42 42" fill="none" xmlns="http://www.w3.org/2000/svg">
<path d="M31.2165 20.1482C33.4776 20.7588 34.8575 21.5728 34.8575 22.4665C34.8575 24.3616 28.6532 25.9765 20.9998 25.9765C13.3464 25.9765 7.14209 24.3616 7.14209 22.4665C7.14209 19.7326 13.8494 18.1745 20.9998 18.4589" stroke="#F5F4F1" stroke-width="1.5" stroke-miterlimit="10" stroke-linecap="round" stroke-linejoin="round"/>
<path d="M27.0303 31.6467C31.6628 31.0914 34.8576 29.9163 34.8576 28.5563V22.4666" stroke="#F5F4F1" stroke-width="1.5" stroke-miterlimit="10" stroke-linecap="round" stroke-linejoin="round"/>
<path d="M7.14209 22.4666V28.5563C7.14209 30.4515 13.3464 31.9877 20.9998 31.9877" stroke="#F5F4F1" stroke-width="1.5" stroke-miterlimit="10" stroke-linecap="round" stroke-linejoin="round"/>
<path d="M31.6633 24.6583V23.2106C31.6633 21.3215 31.1643 19.4658 30.2167 17.8314L29.1065 15.9163C29.1065 15.9163 30.7745 14.3489 30.7745 12.1868H24.3624C24.3624 14.3388 26.0305 15.9163 26.0305 15.9163L24.9202 17.8314C23.9726 19.4657 23.4736 21.3214 23.4736 23.2106V25.8434" stroke="#F5F4F1" stroke-width="1.5" stroke-miterlimit="10" stroke-linecap="round" stroke-linejoin="round"/>
<path d="M29.1064 15.9163H28.3545" stroke="#F5F4F1" stroke-width="1.5" stroke-miterlimit="10" stroke-linecap="round" stroke-linejoin="round"/>
<path d="M16.6694 22.1926V23.7048" stroke="#F5F4F1" stroke-width="1.5" stroke-miterlimit="10" stroke-linecap="round" stroke-linejoin="round"/>
<path d="M13.9667 23.0418C12.4742 23.0418 11.2642 22.6615 11.2642 22.1925C11.2642 21.7234 12.4742 21.3431 13.9667 21.3431C15.4593 21.3431 16.6693 21.7234 16.6693 22.1925" stroke="#F5F4F1" stroke-width="1.5" stroke-miterlimit="10" stroke-linecap="round" stroke-linejoin="round"/>
<path d="M18.6372 21.547C20.0647 21.547 20.5408 21.9273 20.5408 22.3963V23.8357" stroke="#F5F4F1" stroke-width="1.5" stroke-miterlimit="10" stroke-linecap="round" stroke-linejoin="round"/>
<path d="M10.6772 14.795C10.6772 13.3293 11.5822 13.3293 11.5822 11.8636C11.5822 10.3977 10.6772 10.3977 10.6772 8.93187C10.6772 7.46596 11.5822 7.46596 11.5822 6.00012" stroke="#F5F4F1" stroke-width="1.5" stroke-miterlimit="10" stroke-linecap="round" stroke-linejoin="round"/>
<path d="M5.37158 16.3669C5.37158 14.9012 6.27655 14.9012 6.27655 13.4355C6.27655 11.9696 5.37158 11.9696 5.37158 10.5038C5.37158 9.03794 6.27655 9.03786 6.27655 7.57202" stroke="#F5F4F1" stroke-width="1.5" stroke-miterlimit="10" stroke-linecap="round" stroke-linejoin="round"/>
<path d="M2.15137 24.1292H4.73753" stroke="#F5F4F1" stroke-width="1.5" stroke-miterlimit="10" stroke-linecap="round" stroke-linejoin="round"/>
<path d="M37.1021 24.1292H39.9298" stroke="#F5F4F1" stroke-width="1.5" stroke-miterlimit="10" stroke-linecap="round" stroke-linejoin="round"/>
<path d="M9.25177 34.7796C4.83547 33.6877 2 31.9941 2 30.0926C2 29.1759 2.65919 28.3074 3.83689 27.5314" stroke="#F5F4F1" stroke-width="1.5" stroke-miterlimit="10" stroke-linecap="round" stroke-linejoin="round"/>
<path d="M15.375 35.7902C14.5705 35.7121 13.7889 35.6176 13.0342 35.5081" stroke="#F5F4F1" stroke-width="1.5" stroke-miterlimit="10" stroke-linecap="round" stroke-linejoin="round"/>
<path d="M30.9833 35.1674C28.0822 35.7307 24.6621 36.0559 21 36.0559" stroke="#F5F4F1" stroke-width="1.5" stroke-miterlimit="10" stroke-linecap="round" stroke-linejoin="round"/>
<path d="M37.7067 27.2501C39.1691 28.095 39.9999 29.0634 39.9999 30.0926C39.9999 31.6492 38.0996 33.0665 34.9873 34.1285" stroke="#F5F4F1" stroke-width="1.5" stroke-miterlimit="10" stroke-linecap="round" stroke-linejoin="round"/>
</svg>
