<svg width="42" height="42" viewBox="0 0 42 42" fill="none" xmlns="http://www.w3.org/2000/svg">
<g clip-path="url(#clip0_7909_27592)">
<path d="M18.1196 27.2371L22.6771 13.5644C22.8459 13.0579 22.5722 12.5103 22.0656 12.3415C21.5591 12.1727 21.0116 12.4464 20.8427 12.9529L16.2852 26.6256C16.1164 27.1321 16.3901 27.6797 16.8967 27.8485C16.9981 27.8823 17.1012 27.8983 17.2025 27.8983C17.6073 27.8984 17.9845 27.6422 18.1196 27.2371Z" fill="#F5F4F1"/>
<path d="M24.9507 22.9955C26.55 22.9955 27.8511 21.6944 27.8511 20.0951C27.8511 18.4958 26.55 17.1947 24.9507 17.1947C23.3514 17.1947 22.0503 18.4958 22.0503 20.0951C22.0503 21.6944 23.3514 22.9955 24.9507 22.9955ZM24.9507 19.1283C25.4838 19.1283 25.9175 19.562 25.9175 20.0951C25.9175 20.6282 25.4838 21.0619 24.9507 21.0619C24.4176 21.0619 23.9839 20.6282 23.9839 20.0951C23.9839 19.562 24.4176 19.1283 24.9507 19.1283Z" fill="#F5F4F1"/>
<path d="M14.0122 17.1947C12.4129 17.1947 11.1118 18.4958 11.1118 20.0951C11.1118 21.6944 12.4129 22.9955 14.0122 22.9955C15.6115 22.9955 16.9126 21.6944 16.9126 20.0951C16.9126 18.4958 15.6115 17.1947 14.0122 17.1947ZM14.0122 21.0619C13.4791 21.0619 13.0454 20.6282 13.0454 20.0951C13.0454 19.562 13.4791 19.1283 14.0122 19.1283C14.5453 19.1283 14.979 19.562 14.979 20.0951C14.979 20.6282 14.5454 21.0619 14.0122 21.0619Z" fill="#F5F4F1"/>
<path d="M37.8066 16.9884L34.4353 12.4932L34.5668 11.5726C34.6098 11.2714 34.5086 10.9674 34.2934 10.7523L32.2425 8.70139L34.2933 6.65049C34.6709 6.27299 34.6709 5.66081 34.2933 5.28325C33.9158 4.90575 33.3036 4.90575 32.926 5.28325L30.8752 7.33415L28.8243 5.28325C28.6092 5.06804 28.3052 4.96711 28.004 5.00977L18.4331 6.37702C18.226 6.4066 18.0341 6.50257 17.8862 6.65049L6.03665 18.5001C4.65445 19.8822 4.65445 22.1312 6.03665 23.5134L16.0632 33.5399C16.2683 33.745 16.4928 33.919 16.7305 34.0632V34.4552C16.7305 36.4099 18.3207 38.0001 20.2754 38.0001H34.4551C36.4097 38.0001 38 36.4099 38 34.4552V17.5685C38 17.3593 37.9321 17.1557 37.8066 16.9884ZM7.40389 22.1461C6.7756 21.5178 6.7756 20.4956 7.40389 19.8673L19.0256 8.24564L27.7988 6.99235L29.5079 8.70146L28.1407 10.0687L27.457 9.38505C27.0795 9.00754 26.4673 9.00754 26.0898 9.38505C25.7122 9.76255 25.7122 10.3747 26.0898 10.7523L28.8243 13.4868C29.0131 13.6756 29.2605 13.7701 29.5079 13.7701C29.7553 13.7701 30.0028 13.6756 30.1915 13.4868C30.5691 13.1093 30.5691 12.4972 30.1915 12.1196L29.5078 11.4359L30.8751 10.0687L32.5842 11.7778L31.3308 20.551L19.7092 32.1727C19.4049 32.4771 19.0002 32.6446 18.5698 32.6446C18.1394 32.6446 17.7348 32.477 17.4304 32.1727L7.40389 22.1461ZM36.0664 34.4552C36.0664 35.3437 35.3435 36.0665 34.4551 36.0665H20.2754C19.4269 36.0665 18.73 35.4073 18.6689 34.5742C19.5433 34.5499 20.4105 34.2059 21.0764 33.5399L32.926 21.6904C33.0739 21.5425 33.1699 21.3506 33.1995 21.1435L34.0485 15.2003L36.0664 17.8907V34.4552Z" fill="#F5F4F1"/>
</g>
<defs>
<clipPath id="clip0_7909_27592">
<rect width="33" height="33" fill="white" transform="translate(5 5)"/>
</clipPath>
</defs>
</svg>
