<svg width="36" height="40" viewBox="0 0 36 40" fill="none" xmlns="http://www.w3.org/2000/svg">
<path d="M8.1217 21.6496C8.54933 20.6788 9.22175 20.1303 10.2333 20.0452C10.4103 20.0305 10.4575 19.9513 10.4752 19.7841C10.5607 18.9423 10.9677 18.297 11.7168 17.8893C11.8878 17.7955 11.9055 17.6811 11.8937 17.511C11.7728 15.8655 12.171 14.3226 12.8817 12.856C13.4008 11.7854 14.2649 11.146 15.4711 11.0844C17.2377 10.9935 19.0102 10.9524 20.7797 10.9084C21.4521 10.8908 21.8119 11.0727 22.6229 11.7268C23.142 9.35973 23.6522 7.02494 24.1772 4.63442C23.3012 4.78401 22.5168 5.04506 21.7323 5.30904C19.1635 6.18019 16.6832 7.28599 14.1204 8.17473C12.1533 8.85523 10.1625 9.45359 8.04797 9.42426C7.04229 9.40959 6.07495 9.2072 5.18429 8.71737C2.12302 7.03374 2.41794 3.86593 4.6033 2.06498C5.48511 1.34049 6.48194 1.07064 7.60559 1.42555C8.15414 1.59861 8.90324 1.63381 8.88554 2.37589C8.87964 2.66334 8.6791 2.99772 8.36058 2.98306C7.99783 2.96839 7.59969 2.71907 7.24873 2.62521C6.57337 2.44629 5.99532 2.58415 5.45857 2.99772C5.03388 3.32623 4.70062 3.72514 4.47059 4.20911C3.94858 5.30025 4.14912 6.29752 5.05748 7.09533C5.80952 7.75823 6.70608 8.06327 7.69111 8.1278C9.62284 8.25686 11.4425 7.73183 13.2415 7.13346C15.7277 6.30632 18.1224 5.24158 20.588 4.3587C21.7559 3.93926 22.9355 3.55502 24.1536 3.31743C24.416 3.26464 24.5104 3.14731 24.5517 2.90093C24.6284 2.46095 24.7316 2.02391 24.8378 1.58981C24.9439 1.15863 25.2477 0.938649 25.5987 1.01491C25.9791 1.09704 26.162 1.43435 26.0705 1.88019C26.0116 2.16764 25.9644 2.45802 25.8788 2.73667C25.7963 3.00652 25.8965 3.05638 26.1413 3.04172C26.858 3.00359 27.5687 3.06812 28.2647 3.25584C30.0962 3.74861 31.208 5.00106 31.8923 6.69642C32.2049 7.47371 32.4172 8.27739 32.5381 9.10454C32.5794 9.39786 32.6826 9.59145 32.9599 9.7557C34.8975 10.8996 35.5493 12.7944 34.5053 14.789C33.3492 17.0006 32.9097 19.3119 33.01 21.7611C33.0277 22.1776 33.0926 22.5912 33.128 23.0047C33.1663 23.4389 32.951 23.738 32.5824 23.7791C32.2373 23.8172 31.9394 23.5796 31.8893 23.1807C31.5325 20.3238 31.7183 17.5432 33.0631 14.9239C33.2459 14.569 33.4199 14.2024 33.5586 13.8269C33.9508 12.7563 33.6323 11.8001 32.6768 11.1108C32.5558 11.1841 32.5676 11.3191 32.5381 11.4305C32.311 12.2577 31.8893 12.9646 31.211 13.5013C30.4088 14.1349 29.5476 14.2288 28.7927 13.7741C27.958 13.2696 27.5392 12.3046 27.7368 11.3425C28.0259 9.93462 29.2763 9.01655 30.8335 9.11041C31.2257 9.13387 31.267 9.04001 31.1815 8.68804C31.0252 8.04274 30.8512 7.40331 30.5681 6.79909C29.8042 5.16825 28.5184 4.33817 26.7046 4.31471C25.5456 4.30004 25.5397 4.29711 25.3008 5.38824C24.6785 8.22166 24.0621 11.0551 23.4457 13.8885C23.4222 13.9912 23.4222 14.0968 23.4045 14.2552C23.9972 13.9149 24.59 13.7712 25.2241 13.9061C26.274 14.129 26.9818 14.9122 27.1146 16.0473C27.4714 19.0831 27.8165 22.1189 28.1497 25.1577C28.1851 25.4833 28.2382 25.6211 28.6098 25.5419C29.0817 25.4451 29.4946 25.6211 29.8337 25.9584C30.5681 26.6917 31.3113 27.4162 32.0368 28.1554C32.6296 28.7625 32.6384 29.5838 32.0368 30.1851C29.2439 32.9775 26.4421 35.761 23.6345 38.5417C23.0093 39.1605 22.1982 39.1488 21.5612 38.5299C20.8269 37.8172 20.1043 37.0956 19.3876 36.3682C18.8597 35.8344 18.7683 35.236 19.1429 34.5995C19.2756 34.3766 19.2313 34.2944 19.0426 34.1713C18.4233 33.7606 17.8128 33.3324 17.1964 32.9188C16.7658 32.6314 16.291 32.5346 15.7749 32.6343C15.4092 32.7047 15.0376 32.7428 14.6719 32.8073C13.6013 32.998 12.6576 32.7252 11.8908 31.9685C8.4815 28.6217 5.07517 25.2574 1.68064 21.8843C0.754593 20.9633 0.787034 19.4908 1.69539 18.5904C2.60964 17.684 4.05475 17.6664 5.00734 18.5816C5.93634 19.4703 6.83585 20.3913 7.74715 21.2947C7.85627 21.4032 7.96834 21.5059 8.1217 21.6496ZM22.4696 21.5059C22.3486 21.4355 22.2454 21.371 22.1363 21.3153C19.4525 19.9689 17.3674 17.948 15.6009 15.5751C15.1939 15.0295 15.4357 14.5426 16.1199 14.4781C16.3677 14.4546 16.6154 14.4517 16.8631 14.4458C18.1372 14.4077 19.4083 14.3754 20.6823 14.3314C21.3961 14.305 21.8591 13.8504 21.8414 13.211C21.8266 12.5715 21.3341 12.1316 20.6263 12.1521C18.9807 12.199 17.335 12.2518 15.6923 12.3134C14.9933 12.3398 14.4212 12.639 14.0938 13.2696C13.4332 14.5367 13.0793 15.8831 13.1442 17.3232C13.153 17.5462 13.2209 17.6429 13.448 17.6957C13.8962 17.7984 14.2619 18.0595 14.5863 18.385C15.6363 19.438 16.6891 20.4881 17.7479 21.5323C18.4616 22.2363 18.7388 23.0634 18.4203 24.0226C18.1047 24.9788 17.3969 25.5155 16.3972 25.627C16.1376 25.6563 16.1022 25.7678 16.0816 25.9672C16.0403 26.4072 15.881 26.8061 15.6097 27.1552C14.7043 28.3138 13.0823 28.3812 11.9763 27.2872C9.44589 24.7822 6.92432 22.2656 4.39686 19.7548C4.26414 19.6228 4.13733 19.485 3.98692 19.3764C3.37938 18.9423 2.5595 19.2122 2.32062 19.9191C2.14072 20.4529 2.3855 20.8371 2.74825 21.195C5.98058 24.3804 9.22175 27.557 12.4246 30.7688C13.1353 31.4816 13.8874 31.7602 14.8518 31.5138C16.2232 31.1618 17.4559 31.4082 18.556 32.3234C18.96 32.6578 19.4348 32.9041 19.8477 33.2297C20.1308 33.4497 20.2931 33.3998 20.5319 33.1593C22.5875 31.0973 24.649 29.0412 26.7253 26.9997C26.9789 26.7504 27.0349 26.5187 26.9966 26.1843C26.7459 24.1311 26.5188 22.0749 26.2799 20.0217C26.1266 18.7018 25.9821 17.3848 25.814 16.0678C25.7373 15.4812 25.2359 15.094 24.6726 15.1322C24.0798 15.1732 23.661 15.6308 23.664 16.2497C23.664 16.4668 23.6876 16.6809 23.7082 16.895C23.8468 18.2472 23.9855 19.5964 24.1329 20.9486C24.1713 21.3094 24.0887 21.5968 23.8232 21.8667C22.9031 22.8024 22.6583 23.9434 22.8854 25.2046C23.0063 25.8646 22.8677 26.2078 22.4283 26.2811C22.0095 26.3515 21.7352 26.0523 21.629 25.4041C21.6231 25.3747 21.6231 25.3425 21.6172 25.3131C21.3902 23.9346 21.6526 22.6704 22.4696 21.5059ZM28.7661 26.7856C28.6983 26.8442 28.6098 26.9058 28.5361 26.9792C25.8258 29.6718 23.1184 32.3703 20.4022 35.06C20.181 35.28 20.1928 35.4149 20.4081 35.6202C21.0539 36.2421 21.691 36.8756 22.3162 37.518C22.5168 37.7233 22.6524 37.7644 22.8795 37.5385C25.581 34.8371 28.2913 32.1444 31.0075 29.4548C31.1963 29.267 31.2434 29.138 31.0281 28.9297C30.3587 28.2874 29.7069 27.6245 29.0492 26.9704C28.9785 26.8941 28.9106 26.8032 28.7661 26.7856ZM14.837 25.7179C14.8459 25.3835 14.6925 25.1225 14.4654 24.8966C13.389 23.826 12.3184 22.7496 11.2361 21.6878C10.7199 21.1803 10.077 21.1627 9.61989 21.6086C9.17751 22.0427 9.19816 22.7144 9.68772 23.2189C10.1625 23.7087 10.6521 24.1809 11.1358 24.662C11.7522 25.2721 12.3626 25.888 12.9849 26.4923C13.33 26.8266 13.7547 26.8941 14.1912 26.7064C14.6158 26.5275 14.8193 26.1755 14.837 25.7179ZM12.8522 18.869C12.3951 18.8778 12.0382 19.0685 11.8465 19.4908C11.643 19.9455 11.7197 20.3737 12.0707 20.7286C13.1737 21.8374 14.2796 22.9432 15.3974 24.0372C15.8575 24.4889 16.524 24.4831 16.9457 24.0695C17.3881 23.6354 17.394 22.9666 16.928 22.4944C15.8368 21.3944 14.7338 20.3062 13.6367 19.2151C13.4214 19.0039 13.1707 18.8631 12.8522 18.869ZM17.4264 15.6044C17.4117 15.6689 17.394 15.7305 17.3792 15.7951C18.8774 17.5902 20.585 19.1359 22.791 20.2212C22.6937 19.265 22.5934 18.3938 22.5197 17.5227C22.4578 16.7923 22.2513 16.0561 22.5698 15.3346C22.6111 15.2436 22.6229 15.1556 22.502 15.1087C22.3811 15.0618 22.269 15.0412 22.154 15.1322C21.6202 15.5457 20.9861 15.6015 20.3461 15.6073C19.3729 15.6103 18.3997 15.6044 17.4264 15.6044ZM30.6949 10.357C29.6568 10.3511 28.8841 11.0551 28.9667 11.9321C29.002 12.3017 29.1819 12.5803 29.5123 12.7358C29.8308 12.8854 30.1168 12.7622 30.3764 12.5657C30.8512 12.2049 31.1402 11.7209 31.2995 11.1577C31.5 10.4655 31.4145 10.3599 30.6949 10.357Z" fill="black" stroke="black" stroke-width="0.5" stroke-miterlimit="10"/>
</svg>
