<svg width="42" height="42" viewBox="0 0 42 42" fill="none" xmlns="http://www.w3.org/2000/svg">
<path d="M39.4 16.9748C33.6835 13.7795 27.9559 10.6037 22.259 7.36977C21.3744 6.86715 20.6913 6.88372 19.8235 7.37806C15.6663 9.74478 11.4784 12.0563 7.3044 14.3926C5.64153 15.3233 3.98986 16.2733 2.3214 17.1929C1.68313 17.5437 1.43957 18.0656 1.73352 18.6842C2.05825 19.3636 2.67413 19.3415 3.2872 19.0294C3.65953 18.8389 4.02905 18.6428 4.38458 18.4246C5.02845 18.0325 5.38118 18.049 5.37558 18.9438C5.35599 23.727 5.35879 28.5074 5.35879 33.2905H3.08844C2.78051 33.2905 2.52856 33.5391 2.52856 33.8429V34.4477C2.52856 34.7515 2.78051 35 3.08844 35H39.0556C39.3636 35 39.6155 34.7515 39.6155 34.4477V33.8429C39.6155 33.5391 39.3636 33.2905 39.0556 33.2905H36.6677C36.7013 29.6314 36.6789 25.9722 36.6761 22.313C36.6761 21.3023 36.7097 20.2887 36.6677 19.278C36.6285 18.2893 36.8301 17.7922 37.8715 18.5158C38.0226 18.6207 38.1934 18.7008 38.3558 18.7919C39.0724 19.1979 39.8843 19.6315 40.3938 18.6538C40.8557 17.7674 40.0662 17.3476 39.4 16.9748ZM18.8857 33.2878C18.8857 33.2823 18.8829 33.2767 18.8829 33.2712V26.1904C18.8829 25.9004 19.1208 25.6684 19.412 25.6684H20.3974C20.4786 25.6656 20.5597 25.6656 20.6409 25.6684H22.7293C23.0232 25.6684 23.2584 25.9032 23.2584 26.1904V33.2712C23.2584 33.2767 23.2556 33.2823 23.2556 33.2878H18.8857ZM25.33 33.2878C25.3328 32.4455 25.3384 26.2373 25.3524 25.395C25.3748 24.0805 24.8597 23.5613 23.5355 23.6055C21.8139 23.6662 20.0866 23.6469 18.3622 23.611C17.2256 23.5861 16.7749 24.0749 16.7889 25.1879C16.8001 26.0992 16.8057 32.3764 16.8085 33.2878H7.50036C7.50316 33.1083 7.50316 32.9094 7.50036 32.694C7.47796 30.3936 7.49476 28.0959 7.49476 25.7954C7.49476 23.1277 7.51995 20.46 7.47796 17.7922C7.46676 17.0079 7.71032 16.5412 8.42417 16.149C12.335 14.0088 16.2234 11.8326 20.1006 9.6288C20.7949 9.23388 21.3352 9.24217 22.0238 9.63432C25.8983 11.8381 29.7895 14.017 33.7003 16.1573C34.4226 16.5522 34.6353 17.0383 34.6325 17.8088C34.6073 22.9675 34.5961 28.1263 34.6325 33.285H25.33V33.2878Z" fill="black"/>
<path d="M14.166 17.8722H12.3828C12.0833 17.8722 11.8369 18.1125 11.8369 18.4107V19.9683C11.8369 20.2638 12.0805 20.5068 12.3828 20.5068H14.166C14.4656 20.5068 14.7119 20.2665 14.7119 19.9683V18.4107C14.7119 18.1125 14.4684 17.8722 14.166 17.8722Z" fill="black"/>
<path d="M21.9629 17.8722H20.1797C19.8801 17.8722 19.6338 18.1125 19.6338 18.4107V19.9683C19.6338 20.2638 19.8773 20.5068 20.1797 20.5068H21.9629C22.2625 20.5068 22.5088 20.2665 22.5088 19.9683V18.4107C22.5088 18.1125 22.2653 17.8722 21.9629 17.8722Z" fill="black"/>
<path d="M29.7588 17.8722H27.9756C27.676 17.8722 27.4297 18.1125 27.4297 18.4107V19.9683C27.4297 20.2638 27.6732 20.5068 27.9756 20.5068H29.7588C30.0584 20.5068 30.3047 20.2665 30.3047 19.9683V18.4107C30.3047 18.1125 30.0612 17.8722 29.7588 17.8722Z" fill="black"/>
</svg>
