<svg width="39" height="35" viewBox="0 0 39 35" fill="none" xmlns="http://www.w3.org/2000/svg">
<g clip-path="url(#clip0_7233_10838)">
<path d="M25.8485 12.1974C26.4119 11.1619 26.8165 10.3486 27.2807 9.57502C28.3122 7.85719 29.7761 7.78578 30.8473 9.45203C32.3033 11.7134 33.2951 14.177 33.6244 16.8669C33.8664 18.8426 33.2356 21.1594 30.641 21.7585C30.1213 21.8775 29.9943 22.1592 29.9507 22.6432C29.7603 24.8054 29.8118 24.9125 31.7756 25.8924C34.7352 27.3722 36.9291 29.5502 37.9606 32.7637C38.3811 34.0729 38.0796 34.4934 36.7188 34.4934C24.9599 34.5014 13.2009 34.5014 1.43793 34.4974C0.00971187 34.4974 -0.260062 34.0967 0.21601 32.6883C1.57282 28.6734 4.70299 26.5986 8.44412 25.2061C9.05905 24.976 9.67001 24.9006 9.69778 23.9246C9.72952 22.7979 9.47561 22.2742 8.2775 22.1433C6.75407 21.9807 5.42503 21.334 4.65538 19.8979C4.46099 19.5368 4.12377 19.5091 3.82226 19.394C0.89838 18.299 0.045417 14.5857 2.24725 12.3442C2.68365 11.8998 2.81457 11.511 2.76696 10.908C2.61621 9.01563 3.45727 7.67469 5.19493 6.87727C5.56785 6.70668 5.92094 6.57973 6.21055 6.1949C7.853 4.00894 10.3444 3.44955 12.8637 4.54055C13.7722 4.93331 14.6489 6.09175 15.49 5.68313C16.1803 5.34988 16.3985 4.05258 16.8309 3.18771C16.9817 2.8862 17.1443 2.58866 17.3149 2.29508C18.6717 -0.0535441 20.5562 -0.11702 21.9685 2.2197C23.6864 5.0563 24.8845 8.11903 25.5867 11.3722C25.6343 11.5587 25.7057 11.7411 25.8485 12.1974ZM5.57579 12.602C5.16716 12.7369 4.85771 12.8401 4.54827 12.9393C2.66381 13.5423 2.12427 15.6489 3.34222 17.2279C4.02459 18.1126 5.30998 17.3945 5.75828 18.18C6.22245 18.9933 6.46446 19.8899 7.46421 20.2232C9.3685 20.8619 11.2887 20.9333 13.1652 20.1994C14.8552 19.5408 14.883 19.3385 14.1768 17.7317C13.9586 17.2358 13.8158 16.6963 13.7008 16.1646C13.2485 14.0342 13.6809 11.9673 14.2086 9.91223C14.8592 7.36525 14.8711 7.36128 12.4312 6.20681C12.0543 6.02828 11.6497 5.87752 11.245 5.78627C9.4161 5.36971 8.07517 5.99257 7.36899 7.72627C7.12302 8.33326 6.76597 8.26582 6.30973 8.32929C4.59984 8.5713 3.86193 10.3764 4.89342 11.7491C5.09178 12.0109 5.30601 12.2648 5.57579 12.602ZM15.2043 14.2128C15.2043 14.5103 15.1845 14.8039 15.2083 15.1014C15.4186 17.7397 16.8309 19.0687 19.4731 19.1282C22.5359 19.1917 24.0553 18.0888 24.1942 15.268C24.4243 10.6184 22.5597 6.54006 20.2507 2.64817C19.85 1.96976 19.3343 2.17606 18.9812 2.77909C16.9142 6.32186 15.5416 10.0987 15.2043 14.2128ZM7.33329 32.8272C11.6854 32.8272 15.728 32.8272 19.7667 32.8272C20.0285 32.8272 20.2864 32.7915 20.4015 32.5138C21.06 30.8991 22.52 30.0501 23.7538 28.975C24.6385 28.2053 25.1027 27.2452 24.6822 26.0471C24.4084 25.2775 22.6985 24.9125 22.2899 25.5829C21.1751 27.4079 19.366 28.0625 17.4736 28.5425C15.6804 28.9988 13.8396 29.2646 12.0504 29.7367C10.281 30.2048 8.68216 31.0181 7.33329 32.8272ZM22.1709 32.8311C26.6023 32.8311 30.7441 32.8351 34.886 32.8311C36.2388 32.8311 36.3023 32.7359 35.5961 31.5219C33.7117 28.2648 30.5696 26.904 27.1538 25.9638C26.6737 25.8329 26.4317 25.9916 26.4674 26.5232C26.6063 28.5386 25.4875 29.8438 23.9839 30.9427C23.3492 31.4029 22.7223 31.883 22.1709 32.8311ZM26.3286 16.9224C26.2968 19.4456 27.1181 20.2509 29.2445 20.2192C31.2678 20.1875 32.1247 19.3385 31.978 17.2993C31.7994 14.7999 30.764 12.5822 29.5103 10.4558C29.2326 9.98365 28.9351 9.99951 28.6732 10.4637C27.4672 12.61 26.5111 14.8475 26.3286 16.9224ZM20.5959 25.1862C17.795 25.0037 15.4067 25.2259 13.0501 25.6782C9.74936 26.3129 6.57951 27.2849 4.04442 29.6692C3.29461 30.3714 2.71539 31.1887 2.25122 32.0972C2.04492 32.5058 1.98938 32.8272 2.62017 32.8272C4.04442 32.8192 5.57579 33.2318 6.35337 31.391C6.57951 30.8554 7.19047 30.4547 7.68241 30.066C9.67001 28.5108 12.0147 27.884 14.4545 27.4833C16.5135 27.1421 18.5884 26.8049 20.5959 25.1862ZM24.7218 18.8584C23.5991 19.9375 22.4486 20.481 21.1275 20.7072C19.854 20.9254 20.5522 21.9688 20.4134 22.6432C20.2705 23.3414 20.7427 23.4367 21.3258 23.4684C23.3015 23.5795 25.2574 23.8334 27.1974 24.2499C27.5862 24.3333 28.2487 24.7816 28.2646 23.996C28.2805 23.2661 28.9152 22.1949 27.7568 21.818C26.2889 21.338 25.2336 20.5167 24.7218 18.8584ZM18.7511 22.0798C18.6717 21.6355 19.0169 20.8897 18.398 20.7706C17.5887 20.612 16.7754 19.8026 15.9185 20.4691C14.7283 21.3935 13.4349 22.0322 11.9433 22.2901C10.9276 22.4647 11.3799 23.278 11.3839 23.8135C11.3918 24.5634 12.0147 24.1944 12.332 24.1309C14.03 23.7818 15.7479 23.5795 17.4697 23.5081C18.5091 23.4605 18.9852 23.1669 18.7511 22.0798Z" fill="#29221F"/>
</g>
<defs>
<clipPath id="clip0_7233_10838">
<rect width="38.1295" height="34" fill="white" transform="translate(0 0.5)"/>
</clipPath>
</defs>
</svg>
