<svg width="42" height="42" viewBox="0 0 42 42" fill="none" xmlns="http://www.w3.org/2000/svg">
<path d="M36.2684 25.5252C31.67 25.9857 30.1466 20.3288 30.1466 20.3288L31.6983 17.5844H7.57667L9.1244 20.3276C9.1244 20.3276 7.59901 25.9815 3.00059 25.5211C3.00059 25.5211 2.85472 27.3893 7.14662 27.3893H32.1204C36.4123 27.3892 36.2684 25.5252 36.2684 25.5252Z" stroke="#F5F4F1" stroke-width="1.6" stroke-miterlimit="10" stroke-linecap="round" stroke-linejoin="round"/>
<path d="M31.2206 27.4263V36.8726H8.04883V27.4263" stroke="#F5F4F1" stroke-width="1.6" stroke-miterlimit="10" stroke-linecap="round" stroke-linejoin="round"/>
<path d="M9.10352 20.3167H29.7581" stroke="#F5F4F1" stroke-width="1.6" stroke-miterlimit="10" stroke-linecap="round" stroke-linejoin="round"/>
<path d="M21.517 36.8725V30.6039H17.7524V36.8725" stroke="#F5F4F1" stroke-width="1.6" stroke-miterlimit="10" stroke-linecap="round" stroke-linejoin="round"/>
<path d="M20.8096 12.6794L25.6446 14.4062L28.3066 17.56" stroke="#F5F4F1" stroke-width="1.6" stroke-miterlimit="10" stroke-linecap="round" stroke-linejoin="round"/>
<path d="M25.6445 14.4063L29.7809 12.4537L31.6844 8.49463" stroke="#F5F4F1" stroke-width="1.6" stroke-miterlimit="10" stroke-linecap="round" stroke-linejoin="round"/>
<path d="M16.5322 11.5616L20.6112 12.6014L24.9302 11.5616" stroke="#F5F4F1" stroke-width="1.6" stroke-miterlimit="10" stroke-linecap="round" stroke-linejoin="round"/>
<path d="M18.0317 10.0621L20.6111 12.6015L23.3904 10.0221" stroke="#F5F4F1" stroke-width="1.6" stroke-miterlimit="10" stroke-linecap="round" stroke-linejoin="round"/>
<path d="M19.9565 9.28223L20.611 12.6014L21.6907 9.28223" stroke="#F5F4F1" stroke-width="1.6" stroke-miterlimit="10" stroke-linecap="round" stroke-linejoin="round"/>
<path d="M27.6162 7.27942L31.6952 8.31922L36.0141 7.27942" stroke="#F5F4F1" stroke-width="1.6" stroke-miterlimit="10" stroke-linecap="round" stroke-linejoin="round"/>
<path d="M29.1157 5.77989L31.6951 8.31928L34.4744 5.73987" stroke="#F5F4F1" stroke-width="1.6" stroke-miterlimit="10" stroke-linecap="round" stroke-linejoin="round"/>
<path d="M31.0405 5L31.695 8.3192L32.7747 5" stroke="#F5F4F1" stroke-width="1.6" stroke-miterlimit="10" stroke-linecap="round" stroke-linejoin="round"/>
<path d="M4.20068 36.8724H39.0001" stroke="#F5F4F1" stroke-width="1.6" stroke-miterlimit="10" stroke-linecap="round" stroke-linejoin="round"/>
<path d="M31.2822 31.3021C31.5968 31.0665 31.9875 30.9269 32.4108 30.9269C33.4516 30.9269 34.2953 31.7706 34.2953 32.8114C34.2953 32.8141 34.2951 32.8167 34.2951 32.8195C35.437 32.9125 36.3349 33.8682 36.3349 35.0341C36.3349 35.6479 36.0861 36.2036 35.6838 36.6058" stroke="#F5F4F1" stroke-width="1.6" stroke-miterlimit="10" stroke-linecap="round" stroke-linejoin="round"/>
<path d="M33.6411 34.0683C33.6411 34.0683 34.4064 33.5535 34.2957 32.6434" stroke="#F5F4F1" stroke-width="1.6" stroke-miterlimit="10" stroke-linecap="round" stroke-linejoin="round"/>
</svg>
