<svg width="42" height="42" viewBox="0 0 42 42" fill="none" xmlns="http://www.w3.org/2000/svg">
<g clip-path="url(#clip0_7909_27614)">
<path d="M18.1879 17.4845C16.1448 17.4845 14.6724 19.1942 14.6724 21.2701C14.6724 23.5517 16.4284 25.0479 19.0865 27.3126C19.5497 27.7073 20.0288 28.1154 20.5375 28.5604C20.67 28.6764 20.8352 28.7344 21.0004 28.7344C21.1656 28.7344 21.3308 28.6764 21.4633 28.5604C21.9721 28.1154 22.4511 27.7073 22.9143 27.3126C25.5724 25.0479 27.3285 23.5517 27.3285 21.2701C27.3285 19.194 25.8556 17.4845 23.8129 17.4845C22.4162 17.4845 21.5304 18.282 21.0004 19.0521C20.4705 18.282 19.5846 17.4845 18.1879 17.4845ZM21.6785 20.8346C21.6838 20.8152 22.23 18.8907 23.8129 18.8907C25.0154 18.8907 25.9222 19.9136 25.9222 21.2701C25.9222 22.9024 24.4467 24.1595 22.0023 26.2422C21.6779 26.5186 21.3459 26.8015 21.0004 27.0998C20.6549 26.8015 20.3229 26.5186 19.9985 26.2422C17.5541 24.1595 16.0786 22.9024 16.0786 21.2701C16.0786 19.9136 16.9854 18.8907 18.1879 18.8907C19.7507 18.8907 20.2981 20.7491 20.3229 20.8366C20.4073 21.1409 20.6844 21.3516 21.0004 21.3516C21.3171 21.3516 21.5947 21.1399 21.6785 20.8346Z" fill="black"/>
<path d="M11.8599 10.8751C12.2482 10.8751 12.563 10.5603 12.563 10.172C12.563 9.78367 12.2482 9.46887 11.8599 9.46887C11.4715 9.46887 11.1567 9.78367 11.1567 10.172C11.1567 10.5603 11.4715 10.8751 11.8599 10.8751Z" fill="black"/>
<path d="M34.4543 19.7626L34.4541 19.7625L34.4095 19.7282V29.2336C36.0117 29.6331 37.2504 30.9415 37.555 32.5965C38.4856 33.2625 39.05 34.3371 39.05 35.4843C39.05 37.4504 37.4506 39.0499 35.4845 39.0499H6.51605C4.54994 39.0499 2.95046 37.4504 2.95046 35.4843C2.95046 34.3371 3.51492 33.2625 4.44551 32.5965C4.75008 30.9422 5.98798 29.6342 7.59103 29.2339V19.7271C7.5894 19.7283 7.58779 19.7295 7.58619 19.7307L7.58688 19.7316L7.54648 19.7624C6.97105 20.2013 6.25449 20.4039 5.52871 20.3329C4.86945 20.2691 4.31541 20.0432 3.88961 19.6709C3.46377 19.2985 3.16916 18.7823 3.02454 18.1429M34.4543 19.7626L3.02454 18.1429M34.4543 19.7626C34.956 20.145 35.5555 20.347 36.1875 20.347M34.4543 19.7626L36.1875 20.347M3.02454 18.1429C2.77089 17.0217 3.17493 15.8961 4.07946 15.2066L8.89536 11.5055C8.89536 11.5055 8.89537 11.5055 8.89537 11.5055C9.2251 11.252 9.69797 11.314 9.95146 11.6437C10.205 11.9734 10.1431 12.4463 9.81326 12.6997L4.99488 16.4027L4.99472 16.4028C4.56288 16.732 4.37135 17.2702 4.49357 17.8105C4.56743 18.1371 4.69548 18.3749 4.88547 18.5397C5.07558 18.7045 5.33304 18.8007 5.67445 18.8338L5.67447 18.8338C6.0216 18.8675 6.36139 18.772 6.63303 18.5648L6.63303 18.5648C6.777 18.454 20.5178 7.88448 20.5673 7.84872L3.02454 18.1429ZM28.6845 8.1082V3.70348C28.6845 3.28761 29.0216 2.95037 29.4376 2.95037H33.6563C34.0722 2.95037 34.4094 3.28761 34.4094 3.70348V12.5079L37.9231 15.2082L28.6845 8.1082ZM28.6845 8.1082L22.7336 3.53489L22.7334 3.53476C22.2317 3.15243 21.6322 2.95037 21.0002 2.95037C20.3682 2.95037 19.7687 3.15245 19.2645 3.53652L19.2644 3.53664L13.9109 7.65093C13.5811 7.90435 13.5192 8.37723 13.7727 8.70696C13.7727 8.70696 13.7727 8.70696 13.7727 8.70696L13.8124 8.67649L28.6845 8.1082ZM36.1875 20.347C37.7659 20.347 39.05 19.063 39.05 17.4846M36.1875 20.347L39.05 17.4846M39.05 17.4846C39.05 16.5832 38.6383 15.7526 37.9233 15.2084L39.05 17.4846ZM20.1797 4.73283C20.417 4.55211 20.7005 4.4566 21.0002 4.4566C21.2998 4.4566 21.5833 4.5521 21.8182 4.73095C21.8182 4.73099 21.8183 4.73103 21.8183 4.73107L37.0081 16.4046L37.0083 16.4048C37.3487 16.6639 37.5437 17.0572 37.5437 17.4846C37.5437 18.2324 36.9353 18.8408 36.1875 18.8408C35.8878 18.8408 35.6043 18.7453 35.3696 18.5665L21.4594 7.868C21.1983 7.66716 20.837 7.65931 20.5674 7.84866L20.1797 4.73283ZM5.89259 33.1152L5.84281 33.1104L5.89259 33.1152C6.02764 31.6967 7.20171 30.6125 8.6254 30.6125C9.51438 30.6125 10.356 31.0504 10.8762 31.7842L10.917 31.7552L10.8762 31.7842C11.0539 32.0348 11.3661 32.1524 11.6651 32.0812C11.8424 32.039 11.9979 32.0188 12.141 32.0188C13.2484 32.0188 14.1847 32.9073 14.2001 34.0502C14.1387 34.4952 14.3789 34.805 14.693 34.9145L14.7095 34.8672L14.693 34.9145C15.2184 35.0975 15.6066 35.5939 15.6066 36.1874C15.6065 36.9353 14.998 37.5437 14.2503 37.5437H6.51598C5.38049 37.5437 4.45663 36.6198 4.45663 35.4844C4.45663 34.7516 4.86101 34.0675 5.51287 33.6998C5.72744 33.5788 5.86917 33.3604 5.89259 33.1152ZM36.4876 33.6998L36.5121 33.6563L36.4876 33.6998C37.1394 34.0675 37.5438 34.7516 37.5438 35.4844C37.5438 36.6198 36.6199 37.5437 35.4845 37.5437H27.7502C27.0024 37.5437 26.3939 36.9353 26.3939 36.1875C26.3939 35.5933 26.7827 35.0973 27.3075 34.9145C27.6244 34.8041 27.8614 34.4926 27.8004 34.0502C27.8158 32.9102 28.7494 32.0188 29.8595 32.0188C30.0026 32.0188 30.1581 32.0391 30.3354 32.0813C30.6342 32.1524 30.9466 32.035 31.1243 31.7842C31.6446 31.0505 32.4861 30.6126 33.3751 30.6126C34.7982 30.6125 35.9726 31.6954 36.1078 33.1152C36.1312 33.3605 36.273 33.5787 36.4876 33.6998ZM30.1907 4.4566H32.9032V11.3503L30.1907 9.26574V4.4566ZM26.3543 33.4244C26.3361 33.5227 26.3219 33.6216 26.3118 33.721C25.8881 33.9658 25.5365 34.313 25.288 34.7313H16.7122C16.4635 34.3128 16.1121 33.9658 15.6886 33.721C15.6786 33.6216 15.6644 33.5227 15.6461 33.4244H26.3543ZM24.8881 36.2375C24.8962 36.7092 25.0191 37.1536 25.2298 37.5437H16.7706C16.9814 37.1536 17.1042 36.7092 17.1123 36.2375H24.8881ZM32.9032 18.5698V29.1335C31.8654 29.2505 30.9009 29.749 30.2003 30.5311C30.0846 30.5187 29.9714 30.5125 29.8595 30.5125C28.7427 30.5125 27.6933 31.0422 27.0236 31.9188H14.9768C14.3074 31.0424 13.2578 30.5125 12.1409 30.5125C12.0289 30.5125 11.9157 30.5187 11.8001 30.5311C11.0994 29.7489 10.135 29.2505 9.0972 29.1335V18.5699C10.2071 17.7162 19.7053 10.4107 21.0001 9.41505L32.9032 18.5698Z" fill="black" stroke="black" stroke-width="0.1"/>
</g>
<defs>
<clipPath id="clip0_7909_27614">
<rect width="36" height="36" fill="white" transform="translate(3 3)"/>
</clipPath>
</defs>
</svg>
