<svg width="275" height="192" viewBox="0 0 275 192" fill="none" xmlns="http://www.w3.org/2000/svg">
<path d="M136.209 113.25C151.895 113.25 164.611 100.534 164.611 84.8483C164.611 69.1625 151.895 56.4466 136.209 56.4466C120.523 56.4466 107.807 69.1625 107.807 84.8483C107.807 100.534 120.523 113.25 136.209 113.25Z" fill="#CDCABB"/>
<path d="M190.551 47.9089C174.68 40.7268 159.839 29.2004 148.338 15.6148C144.948 11.6471 141.708 7.40319 138.896 2.95836C138.393 2.205 137.941 1.45164 137.489 0.673164C137.439 0.7485 137.389 0.848949 137.339 0.924286C136.912 1.62742 136.51 2.30545 136.058 3.00858C133.27 7.45341 130.006 11.6722 126.616 15.665C115.114 29.2507 100.273 40.7771 84.4025 47.9591C63.7855 57.4514 22.0242 65.9644 -0.0492554 62.6999L19.0861 97.3796C33.174 95.7222 47.1111 92.3572 60.1945 87.159C96.0042 72.9707 124.557 43.2632 137.314 7.35296L137.439 6.95117L137.565 7.32785C150.322 43.2632 178.874 72.9456 214.684 87.1339C227.767 92.332 241.704 95.6971 255.792 97.3545L274.927 62.6748C252.854 65.9393 211.118 57.4515 190.476 47.934L190.551 47.9089Z" fill="#CDCABB"/>
<path d="M214.783 152.2H57.6324L70.314 123.496H202.102L214.783 152.2Z" fill="#CDCABB"/>
<path d="M232.035 191.123H40.3801L53.0617 162.42H219.454L232.035 191.123Z" fill="#CDCABB"/>
</svg>
