<?xml version="1.0" encoding="UTF-8"?>
<svg xmlns="http://www.w3.org/2000/svg" xmlns:xlink="http://www.w3.org/1999/xlink" width="25px" height="26px" viewBox="0 0 25 26" version="1.1">
<defs>
<clipPath id="clip1">
  <path d="M 1 18 L 24 18 L 24 25.480469 L 1 25.480469 Z M 1 18 "/>
</clipPath>
<clipPath id="clip2">
  <path d="M 3 0.519531 L 22 0.519531 L 22 10 L 3 10 Z M 3 0.519531 "/>
</clipPath>
</defs>
<g id="surface1">
<path style=" stroke:none;fill-rule:nonzero;fill:rgb(32.156863%,28.627451%,25.490196%);fill-opacity:1;" d="M 1.953125 17.5625 L 22.976562 17.5625 C 23.488281 17.5625 23.894531 17.039062 23.894531 16.359375 L 23.894531 14.21875 C 23.894531 12.015625 22.578125 10.210938 20.957031 10.210938 L 3.980469 10.210938 C 2.359375 10.210938 1.042969 12.003906 1.042969 14.21875 L 1.042969 16.359375 C 1.042969 17.039062 1.4375 17.5625 1.953125 17.5625 Z M 1.953125 17.5625 "/>
<g clip-path="url(#clip1)" clip-rule="nonzero">
<path style=" stroke:none;fill-rule:nonzero;fill:rgb(32.156863%,28.627451%,25.490196%);fill-opacity:1;" d="M 23.925781 19.554688 L 23.925781 19.535156 C 23.84375 18.804688 23.371094 18.269531 22.816406 18.269531 L 2.203125 18.269531 C 1.636719 18.269531 1.167969 18.804688 1.09375 19.546875 C 1.082031 19.617188 1.082031 20.515625 1.09375 20.589844 C 1.167969 21.320312 1.617188 21.863281 2.179688 21.882812 C 2.222656 21.882812 2.402344 21.90625 2.527344 21.894531 C 2.527344 21.90625 2.515625 21.925781 2.515625 21.945312 C 2.359375 22.511719 2.214844 23.09375 2.085938 23.605469 C 1.972656 24.054688 2.046875 24.441406 2.277344 24.722656 C 2.433594 24.914062 2.609375 25.007812 2.796875 25.007812 C 2.914062 25.007812 3.039062 24.964844 3.152344 24.890625 C 3.414062 24.734375 3.511719 24.441406 3.582031 24.171875 C 3.636719 23.972656 3.6875 23.765625 3.738281 23.566406 C 3.867188 23.085938 3.992188 22.59375 4.105469 22.101562 C 4.160156 21.875 4.199219 21.875 4.292969 21.875 C 6.855469 21.882812 9.449219 21.882812 11.972656 21.882812 L 15.589844 21.882812 C 17.460938 21.882812 17.859375 21.882812 20.757812 21.875 C 20.863281 21.875 20.894531 21.875 20.945312 22.101562 C 21.09375 22.75 21.269531 23.449219 21.511719 24.296875 C 21.636719 24.765625 21.972656 25.046875 22.335938 24.976562 C 22.691406 24.914062 22.964844 24.566406 23.015625 24.109375 C 23.039062 23.867188 22.984375 23.660156 22.945312 23.480469 C 22.902344 23.335938 22.871094 23.191406 22.828125 23.042969 C 22.734375 22.679688 22.640625 22.300781 22.546875 21.925781 C 22.535156 21.894531 22.535156 21.875 22.523438 21.863281 L 22.839844 21.863281 C 22.847656 21.863281 22.859375 21.863281 22.871094 21.863281 C 23.425781 21.84375 23.886719 21.300781 23.957031 20.578125 C 23.9375 20.527344 23.9375 19.703125 23.925781 19.554688 Z M 23.925781 19.554688 "/>
</g>
<path style=" stroke:none;fill-rule:nonzero;fill:rgb(32.156863%,28.627451%,25.490196%);fill-opacity:1;" d="M 14.972656 6.03125 C 14.984375 6.03125 14.996094 6.03125 15.003906 6.042969 C 15.015625 6.042969 15.035156 6.042969 15.046875 6.054688 C 15.027344 6.042969 14.996094 6.03125 14.972656 6.03125 Z M 14.972656 6.03125 "/>
<path style=" stroke:none;fill-rule:nonzero;fill:rgb(32.156863%,28.627451%,25.490196%);fill-opacity:1;" d="M 15.289062 6.117188 C 15.296875 6.125 15.320312 6.125 15.328125 6.136719 C 15.339844 6.136719 15.351562 6.148438 15.359375 6.148438 C 15.339844 6.125 15.308594 6.125 15.289062 6.117188 Z M 15.289062 6.117188 "/>
<g clip-path="url(#clip2)" clip-rule="nonzero">
<path style=" stroke:none;fill-rule:nonzero;fill:rgb(32.156863%,28.627451%,25.490196%);fill-opacity:1;" d="M 3.414062 8.675781 C 3.414062 8.714844 3.414062 8.746094 3.414062 8.789062 C 3.414062 8.800781 3.414062 8.800781 3.414062 8.808594 C 3.414062 8.832031 3.414062 8.851562 3.414062 8.871094 C 3.414062 8.894531 3.414062 8.902344 3.414062 8.925781 C 3.414062 8.945312 3.414062 8.957031 3.425781 8.976562 C 3.425781 8.996094 3.4375 9.019531 3.4375 9.039062 C 3.4375 9.058594 3.445312 9.070312 3.445312 9.089844 C 3.445312 9.089844 3.445312 9.089844 3.445312 9.101562 C 3.445312 9.125 3.457031 9.144531 3.46875 9.15625 C 3.476562 9.164062 3.476562 9.1875 3.488281 9.207031 C 3.5 9.226562 3.5 9.238281 3.511719 9.257812 C 3.519531 9.28125 3.53125 9.289062 3.542969 9.3125 C 3.550781 9.332031 3.5625 9.351562 3.574219 9.375 C 3.78125 9.65625 4.03125 9.667969 4.253906 9.667969 L 4.261719 9.667969 C 4.261719 9.667969 4.378906 9.667969 4.578125 9.667969 C 5.015625 9.667969 5.894531 9.667969 7.015625 9.667969 L 7.015625 7.953125 C 7.085938 5.863281 8.507812 4.203125 10.246094 4.203125 L 14.773438 4.203125 C 16.5625 4.203125 18.007812 5.957031 18.007812 8.121094 L 18.007812 9.675781 C 19.042969 9.675781 19.859375 9.675781 20.308594 9.675781 L 20.707031 9.675781 C 20.738281 9.675781 20.757812 9.675781 20.789062 9.667969 C 20.808594 9.667969 20.832031 9.65625 20.851562 9.65625 C 20.863281 9.65625 20.863281 9.65625 20.871094 9.65625 C 20.894531 9.644531 20.914062 9.644531 20.933594 9.636719 C 20.933594 9.636719 20.933594 9.636719 20.945312 9.636719 C 20.964844 9.625 20.988281 9.625 21.007812 9.613281 C 21.007812 9.613281 21.007812 9.613281 21.019531 9.613281 C 21.039062 9.601562 21.0625 9.59375 21.082031 9.582031 C 21.101562 9.570312 21.113281 9.5625 21.132812 9.550781 C 21.144531 9.550781 21.144531 9.539062 21.144531 9.539062 C 21.164062 9.53125 21.175781 9.519531 21.195312 9.507812 C 21.21875 9.5 21.226562 9.476562 21.25 9.46875 C 21.269531 9.457031 21.28125 9.4375 21.289062 9.414062 C 21.3125 9.394531 21.324219 9.375 21.34375 9.351562 C 21.355469 9.332031 21.363281 9.320312 21.375 9.300781 C 21.386719 9.28125 21.394531 9.269531 21.40625 9.25 C 21.425781 9.195312 21.449219 9.15625 21.46875 9.089844 C 21.46875 9.082031 21.480469 9.070312 21.480469 9.070312 C 21.480469 9.050781 21.488281 9.039062 21.488281 9.019531 C 21.5 8.964844 21.511719 8.914062 21.519531 8.851562 C 21.519531 8.832031 21.53125 8.808594 21.53125 8.789062 L 21.53125 8.777344 C 21.53125 8.746094 21.53125 8.726562 21.53125 8.695312 C 21.53125 8.675781 21.53125 8.644531 21.53125 8.613281 L 21.53125 8.570312 C 21.519531 7.839844 21.519531 7.097656 21.519531 6.386719 L 21.519531 6.375 C 21.519531 6.117188 21.519531 5.863281 21.519531 5.613281 C 21.519531 5.25 21.488281 4.882812 21.425781 4.527344 C 21.25 3.472656 20.832031 2.585938 20.234375 1.960938 C 19.628906 1.324219 18.875 0.988281 18.027344 0.988281 C 15.902344 0.988281 7.890625 0.988281 6.886719 0.988281 C 4.839844 0.988281 3.40625 2.953125 3.40625 5.75 L 3.40625 6.25 C 3.40625 6.949219 3.40625 8.546875 3.40625 8.613281 C 3.414062 8.632812 3.414062 8.652344 3.414062 8.675781 Z M 3.414062 8.675781 "/>
</g>
<path style=" stroke:none;fill-rule:nonzero;fill:rgb(32.156863%,28.627451%,25.490196%);fill-opacity:1;" d="M 8.539062 7.722656 L 8.539062 9.675781 L 16.480469 9.675781 L 16.480469 7.722656 C 16.40625 7.242188 16.195312 6.824219 15.902344 6.523438 C 15.882812 6.503906 15.871094 6.492188 15.851562 6.46875 C 15.863281 6.480469 15.871094 6.492188 15.882812 6.503906 C 15.769531 6.386719 15.644531 6.28125 15.496094 6.210938 C 15.476562 6.199219 15.453125 6.1875 15.433594 6.179688 C 15.445312 6.1875 15.464844 6.199219 15.476562 6.199219 C 15.382812 6.148438 15.277344 6.105469 15.171875 6.074219 C 15.152344 6.074219 15.140625 6.0625 15.121094 6.0625 C 15.128906 6.0625 15.140625 6.074219 15.152344 6.074219 C 15.027344 6.042969 14.898438 6.023438 14.765625 6.023438 L 10.246094 6.023438 C 10.121094 6.023438 10.003906 6.042969 9.890625 6.0625 C 9.828125 6.085938 9.773438 6.09375 9.722656 6.117188 C 9.722656 6.117188 9.734375 6.117188 9.734375 6.105469 C 9.722656 6.105469 9.710938 6.117188 9.703125 6.117188 C 9.691406 6.117188 9.679688 6.125 9.660156 6.125 C 9.660156 6.125 9.660156 6.125 9.648438 6.125 C 9.628906 6.15625 9.578125 6.179688 9.535156 6.199219 C 9.554688 6.199219 9.566406 6.1875 9.585938 6.179688 C 9.554688 6.1875 9.523438 6.210938 9.503906 6.21875 C 9.460938 6.242188 9.429688 6.273438 9.386719 6.292969 C 9.410156 6.28125 9.417969 6.273438 9.441406 6.261719 C 9.417969 6.273438 9.398438 6.28125 9.378906 6.304688 L 9.386719 6.292969 C 8.960938 6.597656 8.644531 7.109375 8.539062 7.722656 Z M 8.539062 7.722656 "/>
</g>
</svg>
