<svg width="24" height="25" viewBox="0 0 24 25" fill="none" xmlns="http://www.w3.org/2000/svg">
<path d="M9.07868 21.2784C6.02159 20.0805 3.74076 17.3396 3.20409 14.0046C3.15618 13.7171 3.38618 13.4584 3.68326 13.4584H7.01826C7.26743 13.4584 7.45909 13.6405 7.48784 13.8896C7.73701 16.2663 8.47493 18.5471 9.65368 20.598C9.88368 20.9717 9.49076 21.4413 9.07868 21.2784Z" fill="black"/>
<path d="M15.5855 13.995C15.2789 16.4771 14.3493 18.8538 12.8926 20.8855C12.7009 21.1442 12.2984 21.1442 12.1068 20.8855C10.6405 18.8538 9.72052 16.4771 9.41386 13.995C9.37552 13.7075 9.60552 13.4584 9.89302 13.4584H15.0968C15.3939 13.4584 15.6239 13.7075 15.5855 13.995Z" fill="black"/>
<path d="M21.8048 14.0044C21.2681 17.3299 18.9873 20.0803 15.9302 21.2782C15.5181 21.4411 15.1252 20.9811 15.3552 20.5882C16.534 18.5374 17.2815 16.2565 17.5211 13.8799C17.5498 13.6403 17.7415 13.4486 17.9906 13.4486H21.3256C21.6131 13.4582 21.8431 13.7169 21.8048 14.0044Z" fill="black"/>
<path d="M9.07847 3.71194C6.02139 4.90986 3.74056 7.66028 3.20389 10.9857C3.15597 11.2732 3.39556 11.5319 3.68306 11.5319H7.01806C7.26722 11.5319 7.45889 11.3499 7.48764 11.1007C7.73681 8.72403 8.47472 6.44319 9.65347 4.39236C9.88347 4.01861 9.49056 3.54903 9.07847 3.71194Z" fill="black"/>
<path d="M15.5855 10.9952C15.2789 8.51316 14.3493 6.1365 12.8926 4.10483C12.7009 3.84608 12.2984 3.84608 12.1068 4.10483C10.6405 6.1365 9.72052 8.51316 9.41386 10.9952C9.37552 11.2827 9.60552 11.5319 9.89302 11.5319H15.0968C15.3939 11.5319 15.6239 11.2827 15.5855 10.9952Z" fill="black"/>
<path d="M21.8048 10.9858C21.2681 7.66038 18.9873 4.90996 15.9302 3.71204C15.5181 3.54912 15.1252 4.00912 15.3552 4.40204C16.534 6.45288 17.2815 8.73371 17.5211 11.1104C17.5498 11.35 17.7415 11.5416 17.9906 11.5416H21.3256C21.6131 11.532 21.8431 11.2733 21.8048 10.9858Z" fill="black"/>
<path d="M12.5 2.4375C18.0487 2.4375 22.5625 6.95125 22.5625 12.5C22.5625 18.0487 18.0487 22.5625 12.5 22.5625C6.95125 22.5625 2.4375 18.0487 2.4375 12.5C2.4375 6.95125 6.95125 2.4375 12.5 2.4375ZM12.5 1C6.14625 1 1 6.14625 1 12.5C1 18.8538 6.14625 24 12.5 24C18.8538 24 24 18.8538 24 12.5C24 6.14625 18.8538 1 12.5 1Z" fill="black"/>
</svg>
