<svg width="24" height="25" viewBox="0 0 24 25" fill="none" xmlns="http://www.w3.org/2000/svg">
<path d="M4 23C3.74 23 3.48 22.9 3.29 22.71C3.11 22.52 3 22.27 3 22V20C3 18.66 3.52 17.41 4.46 16.46C5.41 15.52 6.67 15 8 15H16C17.34 15 18.59 15.52 19.54 16.46C20.49 17.4 21 18.66 21 20V22C21 22.48 20.66 22.9 20.18 22.98C20.08 23 19.98 23 19.88 22.99C19.11 22.96 10.01 22.98 4 23ZM14.88 20.98C16.84 20.98 18.13 20.99 19 21.02V20C19 19.2 18.69 18.45 18.12 17.88C17.55 17.31 16.8 17 16 17H8C7.2 17 6.44 17.31 5.88 17.88C5.31 18.44 5 19.2 5 20V21C6.44 21 9.21 20.99 11.99 20.98C13.08 20.98 14.04 20.98 14.88 20.98Z" fill="#E5E3DC"/>
<path d="M12 13C9.24 13 7 10.76 7 8C7 5.24 9.24 3 12 3C14.76 3 17 5.24 17 8C17 10.76 14.76 13 12 13ZM12 5C10.35 5 9 6.35 9 8C9 9.65 10.35 11 12 11C13.65 11 15 9.65 15 8C15 6.35 13.65 5 12 5Z" fill="#E5E3DC"/>
</svg>
