<svg width="24" height="25" viewBox="0 0 24 25" fill="none" xmlns="http://www.w3.org/2000/svg">
<path d="M4 23C3.74 23 3.48 22.9 3.29 22.71C3.11 22.52 3 22.27 3 22V20C3 18.66 3.52 17.41 4.46 16.46C5.41 15.52 6.67 15 8 15H16C17.34 15 18.59 15.52 19.54 16.46C20.49 17.4 21 18.66 21 20V22C21 22.48 20.66 22.9 20.18 22.98C20.08 23 19.98 23 19.88 22.99C19.11 22.96 10.01 22.98 4 23Z" fill="#222222"/>
<path d="M12 13C9.24 13 7 10.76 7 8C7 5.24 9.24 3 12 3C14.76 3 17 5.24 17 8C17 10.76 14.76 13 12 13Z" fill="#222222"/>
</svg>
