<svg width="24" height="25" viewBox="0 0 24 25" fill="none" xmlns="http://www.w3.org/2000/svg">
<path d="M12 6.5C11.4473 6.5 11 6.94727 11 7.5V12.5C11 12.7656 11.1055 13.0195 11.293 13.207L14.293 16.207C14.4883 16.4023 14.7441 16.5 15 16.5C15.2559 16.5 15.5117 16.4023 15.707 16.207C16.0977 15.8164 16.0977 15.1836 15.707 14.793L13 12.0859V7.5C13 6.94727 12.5527 6.5 12 6.5Z" fill="black"/>
<path d="M21 11.5C20.4473 11.5 20 11.9473 20 12.5C20 16.9111 16.4111 20.5 12 20.5C7.58887 20.5 4 16.9111 4 12.5C4 8.08887 7.58887 4.5 12 4.5C14.46 4.5 16.7168 5.62793 18.2168 7.5H16C15.4473 7.5 15 7.94727 15 8.5C15 9.05274 15.4473 9.5 16 9.5H20C20.5527 9.5 21 9.05274 21 8.5V4.5C21 3.94727 20.5527 3.5 20 3.5C19.4473 3.5 19 3.94727 19 4.5V5.38672C17.1621 3.57031 14.6768 2.5 12 2.5C6.48633 2.5 2 6.98633 2 12.5C2 18.0137 6.48633 22.5 12 22.5C17.5137 22.5 22 18.0137 22 12.5C22 11.9473 21.5527 11.5 21 11.5Z" fill="black"/>
</svg>
