<svg width="32" height="15" viewBox="0 0 32 15" fill="none" xmlns="http://www.w3.org/2000/svg">
<path d="M0.646875 3C0.646875 1.67452 1.72139 0.6 3.04688 0.6H28.9529C30.2783 0.6 31.3529 1.67452 31.3529 3V12C31.3529 13.3255 30.2783 14.4 28.9529 14.4H3.04687C1.72139 14.4 0.646875 13.3255 0.646875 12V3Z" stroke="black" stroke-width="1.2"/>
<path d="M3.04701 7.9266C3.0438 7.46618 3.09836 7.01288 3.27168 6.5762C3.56109 5.84713 4.07409 5.31124 4.93802 5.09005C5.51415 4.94243 6.07905 4.97043 6.61774 5.21773C7.04087 5.41187 7.45385 5.40759 7.87752 5.21298C8.8356 4.77345 10.1055 5.04258 10.7598 5.81675C10.8101 5.87608 10.8587 5.93684 10.9042 5.99949C11.0187 6.15803 10.9577 6.2914 10.7523 6.3346C10.4217 6.4039 10.1264 6.53728 9.88462 6.74755C9.33416 7.226 9.13249 7.80508 9.33951 8.46533C9.54921 9.13365 10.0649 9.53806 10.8245 9.69659C11.0112 9.73551 11.0866 9.82475 11.0267 9.96999C10.7764 10.5809 10.4458 11.1476 9.90013 11.5995C9.36091 12.0461 8.70293 12.1202 8.05566 11.8055C7.52339 11.5468 6.98149 11.5459 6.44548 11.7969C6.17694 11.9227 5.90145 12.0096 5.59493 11.9992C5.20977 11.9863 4.89095 11.8368 4.60903 11.6156C4.13722 11.2454 3.83283 10.7745 3.58783 10.269C3.24654 9.56606 3.04701 8.69459 3.04701 7.9266Z" fill="black"/>
<path d="M7.04705 4.86854C7.03278 4.08139 7.90668 3.12182 9.08263 3.00328C9.18745 2.9925 9.24141 3.00426 9.26374 3.10026C9.34189 3.44314 9.27987 3.76986 9.09814 4.08237C8.79113 4.61138 8.31231 4.99932 7.60029 5.18595C7.48431 5.21632 7.35778 5.22171 7.23808 5.24473C7.1283 5.26579 7.0948 5.22171 7.08488 5.14872C7.07248 5.05566 7.05945 4.9621 7.04705 4.86854Z" fill="black"/>
<path d="M25.9109 10.8165V8.30547L23.9219 4.18347H25.0379L25.8029 5.94747C26.0099 6.44247 26.1989 6.90147 26.4239 7.40547H26.4599C26.6759 6.90147 26.8919 6.44247 27.0899 5.94747L27.8639 4.18347H28.9529L26.9549 8.30547V10.8165H25.9109Z" fill="black"/>
<path d="M20.642 7.21647L20.372 8.10747H22.181L21.92 7.21647C21.695 6.49647 21.497 5.75847 21.299 5.01147H21.254C21.065 5.76747 20.858 6.49647 20.642 7.21647ZM18.5 10.8165L20.696 4.18347H21.902L24.098 10.8165H22.991L22.433 8.92647H20.129L19.562 10.8165H18.5Z" fill="black"/>
<path d="M14.0469 10.8165V4.18347H16.0539C17.5299 4.18347 18.5829 4.69647 18.5829 6.19047C18.5829 7.63947 17.5299 8.30547 16.0899 8.30547H15.0909V10.8165H14.0469ZM15.0909 7.46847H15.9909C17.0529 7.46847 17.5569 7.06347 17.5569 6.19047C17.5569 5.31747 17.0079 5.02947 15.9549 5.02947H15.0909V7.46847Z" fill="black"/>
</svg>
