<svg width="24" height="25" viewBox="0 0 24 25" fill="none" xmlns="http://www.w3.org/2000/svg">
<g clip-path="url(#clip0_9870_31486)">
<path d="M1.87357 16.8853H22.0561C22.5482 16.8853 22.9398 16.3833 22.9398 15.7306V13.6722C22.9398 11.5535 21.6746 9.81641 20.1182 9.81641H3.82154C2.26518 9.81641 1 11.5435 1 13.6722V15.7306C1 16.3833 1.38156 16.8853 1.87357 16.8853Z" fill="#231815"/>
<path d="M22.9697 18.8033V18.7832C22.8894 18.0803 22.4375 17.5682 21.9053 17.5682H2.11437C1.57215 17.5682 1.1203 18.0803 1.05001 18.7933C1.03997 18.8635 1.03997 19.7271 1.05001 19.7974C1.1203 20.5002 1.55207 21.0224 2.09428 21.0425C2.13445 21.0425 2.30515 21.0625 2.42564 21.0525C2.42564 21.0625 2.4156 21.0826 2.4156 21.1027C2.26498 21.6449 2.12441 22.2072 2.00391 22.6992C1.89346 23.131 1.96375 23.5025 2.18465 23.7736C2.33527 23.9544 2.50597 24.0447 2.68671 24.0447C2.79716 24.0447 2.91765 24.0046 3.0281 23.9343C3.27913 23.7837 3.3695 23.5025 3.43979 23.2414C3.48999 23.0507 3.5402 22.8498 3.5904 22.6591C3.7109 22.1972 3.83139 21.7252 3.94184 21.2533C3.99205 21.0324 4.03221 21.0324 4.12258 21.0324C6.58264 21.0425 9.07283 21.0425 11.4927 21.0425H13.2399H14.9669C16.7643 21.0425 17.1459 21.0425 19.9272 21.0324C20.0276 21.0324 20.0578 21.0324 20.108 21.2533C20.2486 21.8759 20.4192 22.5486 20.6502 23.3619C20.7707 23.8138 21.092 24.0849 21.4434 24.0146C21.7848 23.9544 22.0459 23.623 22.0961 23.1812C22.1162 22.9503 22.066 22.7494 22.0258 22.5787C21.9857 22.4382 21.9555 22.2976 21.9154 22.157C21.825 21.8056 21.7346 21.4441 21.6443 21.0826C21.6342 21.0525 21.6342 21.0324 21.6242 21.0224H21.9254C21.9354 21.0224 21.9455 21.0224 21.9555 21.0224C22.4877 21.0023 22.9295 20.4802 22.9998 19.7873C22.9797 19.7371 22.9797 18.9439 22.9697 18.8033Z" fill="#231815"/>
<path d="M14.3745 5.80005C14.3845 5.80005 14.3946 5.80005 14.4046 5.81007C14.4146 5.81007 14.4347 5.81007 14.4447 5.8201C14.4246 5.81007 14.3946 5.80005 14.3745 5.80005Z" fill="#231815"/>
<path d="M14.6758 5.88049C14.6858 5.89052 14.7059 5.89052 14.7159 5.90054C14.7259 5.90054 14.7359 5.91057 14.7459 5.91057C14.7259 5.89052 14.6958 5.89052 14.6758 5.88049Z" fill="#231815"/>
<path d="M3.27908 8.34043C3.27908 8.38059 3.27908 8.41072 3.27908 8.45088C3.27908 8.46092 3.27908 8.46092 3.27908 8.47096C3.27908 8.49104 3.27908 8.51113 3.27908 8.53121C3.27908 8.55129 3.27908 8.56133 3.27908 8.58142C3.27908 8.6015 3.27908 8.61154 3.28913 8.63162C3.28913 8.6517 3.29917 8.67178 3.29917 8.69187C3.29917 8.71195 3.30921 8.72199 3.30921 8.74207C3.30921 8.74207 3.30921 8.74207 3.30921 8.75211C3.30921 8.7722 3.31925 8.79228 3.32929 8.80232C3.33933 8.81236 3.33933 8.83244 3.34937 8.85252C3.35941 8.87261 3.35941 8.88265 3.36945 8.90273C3.37949 8.92281 3.38954 8.93285 3.39958 8.95294C3.40962 8.97302 3.41966 8.9931 3.4297 9.01318C3.63052 9.28429 3.87151 9.29433 4.08237 9.29433H4.09241C4.09241 9.29433 4.20286 9.29433 4.39364 9.29433C4.81537 9.29433 5.65882 9.29433 6.73322 9.29433V7.64759C6.8035 5.63938 8.16909 4.04285 9.83591 4.04285H14.1837C15.9007 4.04285 17.2864 5.72975 17.2864 7.80825V7.89862V9.30437C18.2805 9.30437 19.0637 9.30437 19.4954 9.30437H19.877C19.9071 9.30437 19.9272 9.30437 19.9573 9.29433C19.9774 9.29433 19.9975 9.28429 20.0176 9.28429C20.0276 9.28429 20.0276 9.28429 20.0376 9.28429C20.0577 9.27425 20.0778 9.27425 20.0979 9.26421C20.0979 9.26421 20.0979 9.26421 20.1079 9.26421C20.128 9.25417 20.1481 9.25417 20.1682 9.24413C20.1682 9.24413 20.1682 9.24413 20.1782 9.24413C20.1983 9.23409 20.2184 9.22404 20.2385 9.214C20.2585 9.20396 20.2686 9.19392 20.2887 9.18388C20.2987 9.18388 20.2987 9.17384 20.2987 9.17384C20.3188 9.1638 20.3288 9.15376 20.3489 9.14371C20.369 9.13367 20.379 9.11359 20.3991 9.10355C20.4192 9.09351 20.4292 9.07343 20.4393 9.05335C20.4594 9.03326 20.4694 9.01318 20.4895 8.9931C20.4995 8.97302 20.5096 8.96298 20.5196 8.94289C20.5297 8.92281 20.5397 8.91277 20.5497 8.89269C20.5698 8.84248 20.5899 8.80232 20.61 8.74207C20.61 8.73203 20.62 8.72199 20.62 8.72199C20.62 8.70191 20.6301 8.69187 20.6301 8.67178C20.6401 8.62158 20.6501 8.57137 20.6602 8.51113C20.6602 8.49104 20.6702 8.47096 20.6702 8.45088V8.44084C20.6702 8.41072 20.6702 8.39063 20.6702 8.36051C20.6702 8.34043 20.6702 8.31031 20.6702 8.28018V8.24002C20.6602 7.53714 20.6602 6.82423 20.6602 6.14143V6.13139C20.6602 5.88036 20.6602 5.63938 20.6602 5.39839C20.6602 5.04696 20.6301 4.69552 20.5698 4.35412C20.3991 3.33997 19.9975 2.48648 19.4251 1.88402C18.8428 1.27151 18.1198 0.950195 17.3065 0.950195C15.2681 0.950195 7.57667 0.950195 6.61272 0.950195C4.64467 0.950195 3.26904 2.83792 3.26904 5.52893V6.0109C3.26904 6.68365 3.26904 8.21994 3.26904 8.28018C3.27908 8.30026 3.27908 8.32035 3.27908 8.34043Z" fill="#231815"/>
<path d="M8.19922 7.42673V7.48698V9.30442H15.8204V7.42673C15.7501 6.96484 15.5493 6.5632 15.2681 6.27201C15.2481 6.25193 15.238 6.24189 15.2179 6.22181C15.228 6.23185 15.238 6.24189 15.2481 6.25193C15.1376 6.14148 15.0171 6.04107 14.8765 5.97078C14.8565 5.96074 14.8364 5.9507 14.8163 5.94065C14.8263 5.9507 14.8464 5.96074 14.8565 5.96074C14.7661 5.91053 14.6657 5.87037 14.5653 5.84024C14.5452 5.84024 14.5351 5.8302 14.5151 5.8302C14.5251 5.8302 14.5351 5.84024 14.5452 5.84024C14.4247 5.81012 14.3042 5.79004 14.1737 5.79004H9.83591C9.71542 5.79004 9.60497 5.81012 9.49452 5.8302C9.43427 5.85029 9.38407 5.86033 9.33386 5.88041C9.33386 5.88041 9.3439 5.88041 9.3439 5.87037C9.33386 5.87037 9.32382 5.88041 9.31378 5.88041C9.30374 5.88041 9.2937 5.89045 9.27361 5.89045C9.27361 5.89045 9.27361 5.89045 9.26357 5.89045C9.24349 5.92057 9.19329 5.94065 9.15312 5.96074C9.1732 5.96074 9.18324 5.9507 9.20333 5.94065C9.1732 5.9507 9.14308 5.97078 9.123 5.98082C9.08283 6.0009 9.05271 6.03102 9.01255 6.05111C9.03263 6.04107 9.04267 6.03102 9.06275 6.02098C9.04267 6.03102 9.02259 6.04107 9.00251 6.06115L9.01255 6.05111C8.60086 6.3423 8.29963 6.83431 8.19922 7.42673Z" fill="#231815"/>
</g>
<defs>
<clipPath id="clip0_9870_31486">
<rect width="24" height="24" fill="white" transform="translate(0 0.5)"/>
</clipPath>
</defs>
</svg>
