<svg width="24" height="25" viewBox="0 0 24 25" fill="none" xmlns="http://www.w3.org/2000/svg">
<path d="M11.9907 5.34998L11.9907 19.65" stroke="#222222" stroke-width="1.54" stroke-linecap="round" stroke-linejoin="round"/>
<path d="M15.657 7H10.157C9.47628 7 8.82343 7.28973 8.34209 7.80546C7.86075 8.32118 7.59033 9.02065 7.59033 9.75C7.59033 10.4793 7.86075 11.1788 8.34209 11.6945C8.82343 12.2103 9.47628 12.5 10.157 12.5H13.8237C14.5044 12.5 15.1572 12.7897 15.6386 13.3055C16.1199 13.8212 16.3903 14.5207 16.3903 15.25C16.3903 15.9793 16.1199 16.6788 15.6386 17.1945C15.1572 17.7103 14.5044 18 13.8237 18H7.59033" stroke="#222222" stroke-width="1.54" stroke-linecap="round" stroke-linejoin="round"/>
<circle cx="12.0942" cy="12.5" r="10.01" stroke="black" stroke-width="1.98"/>
</svg>
