<svg width="24" height="25" viewBox="0 0 24 25" fill="none" xmlns="http://www.w3.org/2000/svg">
<path d="M5 21.5C4.45 21.5 3.979 21.3043 3.587 20.913C3.19567 20.521 3 20.05 3 19.5V5.5C3 4.95 3.19567 4.479 3.587 4.087C3.979 3.69567 4.45 3.5 5 3.5H19C19.55 3.5 20.021 3.69567 20.413 4.087C20.8043 4.479 21 4.95 21 5.5V19.5C21 20.05 20.8043 20.521 20.413 20.913C20.021 21.3043 19.55 21.5 19 21.5H5ZM10.6 16.275C10.7333 16.275 10.8583 16.2543 10.975 16.213C11.0917 16.171 11.2 16.1 11.3 16L16.975 10.325C17.1583 10.1417 17.25 9.91667 17.25 9.65C17.25 9.38333 17.15 9.15 16.95 8.95C16.7667 8.76667 16.5333 8.675 16.25 8.675C15.9667 8.675 15.7333 8.76667 15.55 8.95L10.6 13.9L8.425 11.725C8.24167 11.5417 8.01667 11.45 7.75 11.45C7.48333 11.45 7.25 11.55 7.05 11.75C6.86667 11.9333 6.775 12.1667 6.775 12.45C6.775 12.7333 6.86667 12.9667 7.05 13.15L9.9 16C10 16.1 10.1083 16.171 10.225 16.213C10.3417 16.2543 10.4667 16.275 10.6 16.275Z" fill="black"/>
</svg>
