<svg width="24" height="25" viewBox="0 0 24 25" fill="none" xmlns="http://www.w3.org/2000/svg">
<path d="M21.845 16.04L21.9599 15.8417C22.7431 16.2956 23.2292 17.1392 23.2292 18.0445C23.2292 19.4484 22.0875 20.5903 20.6837 20.5903H3.31627C1.91247 20.5903 0.770833 19.4485 0.770833 18.0445C0.770833 17.1392 1.25694 16.2956 2.04014 15.8417L2.15504 16.04L2.04014 15.8417L11.1263 10.5763V10.3117C11.1263 9.29914 11.6914 8.36779 12.5956 7.87835C13.0203 7.64842 13.272 7.20693 13.2536 6.72351C13.2289 6.07356 12.6993 5.5439 12.0498 5.51923L12.0496 5.51922C11.7034 5.50575 11.3784 5.62991 11.1302 5.8688L21.845 16.04ZM21.845 16.04L21.9599 15.8417L12.8737 10.5763M21.845 16.04L12.8737 10.5763M9.91834 4.60998L9.91835 4.60997C10.5111 4.0394 11.2926 3.74153 12.1161 3.77311L9.91834 4.60998ZM9.91834 4.60998C9.32528 5.18092 8.99802 5.95019 8.99802 6.77329M9.91834 4.60998L8.99802 6.77329M12.8737 10.5763V10.3117C12.8737 9.948 13.0817 9.60222 13.4274 9.41506C14.4405 8.86668 15.0435 7.80893 14.9998 6.65723C14.9406 5.09849 13.6747 3.83232 12.1162 3.77311L12.8737 10.5763ZM8.99802 6.77329C8.99802 7.25581 9.3892 7.64699 9.87171 7.64699M8.99802 6.77329L9.87171 7.64699M9.87171 7.64699C10.3542 7.64699 10.7454 7.25581 10.7454 6.77329M9.87171 7.64699L10.7454 6.77329M10.7454 6.77329C10.7454 6.42836 10.8816 6.10816 11.1302 5.86882L10.7454 6.77329ZM2.91626 17.3537L2.91628 17.3536L12 12.0897L21.0837 17.3536C21.329 17.4958 21.4818 17.7609 21.4818 18.0445C21.4818 18.4846 21.1235 18.8429 20.6837 18.8429H3.31627C2.87651 18.8429 2.51823 18.4846 2.51823 18.0445C2.51823 17.7609 2.671 17.4957 2.91626 17.3537Z" fill="black" stroke="black" stroke-width="0.458333"/>
</svg>
