<svg width="24" height="25" viewBox="0 0 24 25" fill="none" xmlns="http://www.w3.org/2000/svg">
<path d="M15 3.5H9C6.79086 3.5 5 5.29086 5 7.5V15.5" stroke="#222222" stroke-width="2"/>
<path d="M9 12C9 10.804 9.00149 9.99062 9.0712 9.37226C9.13864 8.77406 9.25916 8.48334 9.41329 8.28248C9.51969 8.14381 9.64381 8.01969 9.78248 7.91329C9.98334 7.75916 10.2741 7.63864 10.8723 7.5712C11.4906 7.50149 12.304 7.5 13.5 7.5C14.696 7.5 15.5094 7.50149 16.1277 7.5712C16.7259 7.63864 17.0167 7.75916 17.2175 7.91329C17.3562 8.01969 17.4803 8.14381 17.5867 8.28248C17.7408 8.48334 17.8614 8.77406 17.9288 9.37226C17.9985 9.99062 18 10.804 18 12V16C18 17.196 17.9985 18.0094 17.9288 18.6277C17.8614 19.2259 17.7408 19.5167 17.5867 19.7175C17.4803 19.8562 17.3562 19.9803 17.2175 20.0867C17.0167 20.2408 16.7259 20.3614 16.1277 20.4288C15.5094 20.4985 14.696 20.5 13.5 20.5C12.304 20.5 11.4906 20.4985 10.8723 20.4288C10.2741 20.3614 9.98334 20.2408 9.78248 20.0867C9.64381 19.9803 9.51969 19.8562 9.41329 19.7175C9.25916 19.5167 9.13864 19.2259 9.0712 18.6277C9.00149 18.0094 9 17.196 9 16V12Z" stroke="#222222" stroke-width="2"/>
</svg>
