<svg width="24" height="25" viewBox="0 0 24 25" fill="none" xmlns="http://www.w3.org/2000/svg">
<path d="M20.25 19.87H12.88C12.44 19.87 12 20.31 12 20.75C12 21.19 12.44 21.63 12.88 21.63H20.25C20.69 21.63 21.13 21.19 21.13 20.75C21.13 20.31 20.69 19.87 20.25 19.87Z" fill="black"/>
<path d="M19.9201 5.23999C18.6001 3.91999 16.2901 3.91999 14.9701 5.23999L6.19 13.38C5.86 13.71 5.75 13.82 5.64 13.93C5.53 14.04 5.42 14.26 5.31 14.48C5.2 14.7 5.09 14.81 4.98 15.25L4.87 15.47L3 20.42C2.89 20.75 3 21.08 3.22 21.41C3.44 21.63 3.66 21.63 3.88 21.63C3.99 21.63 4.1 21.63 4.21 21.52L9.27 19.54C9.6 19.43 9.82 19.32 10.04 19.21C10.26 19.1 10.37 18.99 10.59 18.88C10.7 18.77 10.92 18.66 11.14 18.33L19.9201 10.19C21.2401 8.86999 21.2401 6.66999 19.9201 5.23999ZM5.42 19.1L6.52 16.24L8.28 18L5.42 19.1ZM18.6001 8.97999L9.82 17.12C9.71 17.01 9.71 17.01 9.6 16.9L7.51 14.81C7.4 14.7 7.4 14.7 7.29 14.59L16.0701 6.44999C16.4001 6.11999 16.8401 5.89999 17.2801 5.89999C17.7201 5.89999 18.1601 6.11999 18.4901 6.44999C19.2601 7.21999 19.2601 8.31999 18.6001 8.97999Z" fill="black"/>
</svg>
