<?xml version="1.0" encoding="UTF-8"?>
<svg xmlns="http://www.w3.org/2000/svg" xmlns:xlink="http://www.w3.org/1999/xlink" width="26px" height="26px" viewBox="0 0 26 25" version="1.1">
<g id="surface1">
<path style=" stroke:none;fill-rule:nonzero;fill:rgb(32.156863%,28.627451%,25.490196%);fill-opacity:1;" d="M 13 24.039062 C 19.628906 24.039062 25 18.871094 25 12.5 C 25 6.128906 19.628906 0.960938 13 0.960938 C 6.371094 0.960938 1 6.128906 1 12.5 C 1 18.871094 6.371094 24.039062 13 24.039062 Z M 13 24.039062 "/>
<path style=" stroke:none;fill-rule:nonzero;fill:rgb(100%,100%,100%);fill-opacity:1;" d="M 13 13.777344 C 12.648438 13.777344 12.308594 13.644531 12.058594 13.402344 C 11.808594 13.164062 11.667969 12.835938 11.667969 12.5 C 11.667969 12.164062 11.808594 11.835938 12.058594 11.597656 C 12.308594 11.355469 12.648438 11.222656 13 11.222656 C 13.351562 11.222656 13.691406 11.355469 13.941406 11.597656 C 14.191406 11.835938 14.328125 12.164062 14.328125 12.5 C 14.328125 12.835938 14.191406 13.164062 13.941406 13.402344 C 13.691406 13.644531 13.351562 13.777344 13 13.777344 Z M 13 13.777344 "/>
<path style="fill:none;stroke-width:1.59231;stroke-linecap:round;stroke-linejoin:round;stroke:rgb(100%,100%,100%);stroke-opacity:1;stroke-miterlimit:4;" d="M 9.316106 9.146094 L 16.569261 6.432813 L 13.94997 13.8 L 6.033353 16.958906 Z M 9.316106 9.146094 " transform="matrix(1.130435,0,0,1.086957,0,0)"/>
</g>
</svg>
