<?xml version="1.0" encoding="UTF-8"?>
<svg xmlns="http://www.w3.org/2000/svg" xmlns:xlink="http://www.w3.org/1999/xlink" width="25px" height="px" viewBox="0 0 25 26" version="1.1">
<defs>
<clipPath id="clip1">
  <path d="M 0 0.519531 L 25 0.519531 L 25 25.480469 L 0 25.480469 Z M 0 0.519531 "/>
</clipPath>
</defs>
<g id="surface1">
<path style=" stroke:none;fill-rule:nonzero;fill:rgb(89.803922%,89.019608%,86.274511%);fill-opacity:1;" d="M 12.5 14.277344 C 12.160156 14.277344 11.835938 14.144531 11.59375 13.90625 C 11.355469 13.664062 11.21875 13.339844 11.21875 13 C 11.21875 12.660156 11.355469 12.335938 11.59375 12.09375 C 11.835938 11.855469 12.160156 11.722656 12.5 11.722656 C 12.839844 11.722656 13.164062 11.855469 13.40625 12.09375 C 13.644531 12.335938 13.78125 12.660156 13.78125 13 C 13.78125 13.339844 13.644531 13.664062 13.40625 13.90625 C 13.164062 14.144531 12.839844 14.277344 12.5 14.277344 Z M 12.5 14.277344 "/>
<path style="fill:none;stroke-width:1.8;stroke-linecap:round;stroke-linejoin:round;stroke:rgb(89.803922%,89.019608%,86.274511%);stroke-opacity:1;stroke-miterlimit:4;" d="M 9.72 10.039814 L 17.29125 7.211538 L 14.56125 14.90009 L 6.3 18.201623 Z M 9.72 10.039814 " transform="matrix(1.041667,0,0,1.04,0,0)"/>
<g clip-path="url(#clip1)" clip-rule="nonzero">
<path style="fill:none;stroke-width:2;stroke-linecap:butt;stroke-linejoin:miter;stroke:rgb(89.803922%,89.019608%,86.274511%);stroke-opacity:1;stroke-miterlimit:4;" d="M 22.99875 12.5 C 22.99875 6.426532 18.075 1.498648 12 1.498648 C 5.925 1.498648 1.00125 6.426532 1.00125 12.5 C 1.00125 18.573468 5.925 23.501352 12 23.501352 C 18.075 23.501352 22.99875 18.573468 22.99875 12.5 Z M 22.99875 12.5 " transform="matrix(1.041667,0,0,1.04,0,0)"/>
</g>
</g>
</svg>
