<svg width="24" height="25" viewBox="0 0 24 25" fill="none" xmlns="http://www.w3.org/2000/svg">
<path fill-rule="evenodd" clip-rule="evenodd" d="M15.3125 22.093C15.3125 22.8695 15.9421 23.5 16.7188 23.5C17.5008 23.5 18.125 22.8701 18.125 22.093V9.03152C19.2336 8.35443 20 6.90167 20 5.21875C20 2.8888 18.5309 1 16.7188 1C14.9066 1 13.4375 2.8888 13.4375 5.21875C13.4375 6.90167 14.2039 8.35443 15.3125 9.03152V22.093Z" fill="black"/>
<path fill-rule="evenodd" clip-rule="evenodd" d="M10.625 1.46032C10.625 1.20609 10.8425 1 11.0938 1C11.3527 1 11.5625 1.20852 11.5625 1.47585V6.14984C11.5639 6.24141 11.5385 6.33431 11.4838 6.41627L9.68755 9.11068V22.093C9.68755 22.8701 9.06336 23.5 8.2813 23.5C7.50465 23.5 6.87505 22.8695 6.87505 22.093V9.11068L5.07878 6.41627C5.02414 6.33431 4.99872 6.24141 5.00005 6.14984V1.47585C5.00005 1.21304 5.21749 1 5.4688 1C5.72768 1 5.93755 1.21364 5.93755 1.46032V4.75C5.93755 5.26777 6.35728 5.6875 6.87505 5.6875C7.39282 5.6875 7.81255 5.26777 7.81255 4.75V1.46659C7.81255 1.2089 8.02999 1 8.2813 1C8.54018 1 8.75005 1.20142 8.75005 1.46659V4.75C8.75005 5.26777 9.16978 5.6875 9.68755 5.6875C10.2053 5.6875 10.625 5.26777 10.625 4.75V1.46032Z" fill="black"/>
</svg>
