<svg width="24" height="25" viewBox="0 0 24 25" fill="none" xmlns="http://www.w3.org/2000/svg">
<circle cx="9.02051" cy="7.5" r="3.1" stroke="#222222" stroke-width="1.8" stroke-linecap="round"/>
<path d="M16.2019 7.45C16.4803 6.96766 16.939 6.61571 17.477 6.47156C18.015 6.32741 18.5882 6.40287 19.0705 6.68135C19.5528 6.95982 19.9048 7.4185 20.049 7.95648C20.1931 8.49446 20.1176 9.06766 19.8392 9.55C19.5607 10.0323 19.102 10.3843 18.564 10.5284C18.0261 10.6726 17.4528 10.5971 16.9705 10.3187C16.4882 10.0402 16.1362 9.5815 15.9921 9.04352C15.8479 8.50554 15.9234 7.93234 16.2019 7.45L16.2019 7.45Z" stroke="#222222" stroke-width="1.8"/>
<path d="M15.82 19.5823L16.7108 19.454V19.454L15.82 19.5823ZM2.01014 19.5823L1.11933 19.454L2.01014 19.5823ZM8.91505 13.9463C11.2827 13.9463 12.67 14.9081 13.5296 16.0597C14.4229 17.2565 14.7865 18.7199 14.9291 19.7106L16.7108 19.454C16.5489 18.3304 16.1235 16.5257 14.9721 14.9831C13.7871 13.3953 11.8742 12.1463 8.91505 12.1463V13.9463ZM14.9291 19.7106C14.9303 19.7189 14.9301 19.7239 14.9299 19.7261C14.9298 19.7283 14.9294 19.7296 14.9292 19.7303C14.9288 19.7314 14.9271 19.7362 14.9202 19.7435C14.9058 19.7588 14.8694 19.7833 14.807 19.7833V21.5833C15.8913 21.5833 16.8866 20.6753 16.7108 19.454L14.9291 19.7106ZM14.807 19.7833H3.02305V21.5833H14.807V19.7833ZM3.02305 19.7833C2.96064 19.7833 2.9243 19.7588 2.90989 19.7435C2.903 19.7362 2.90128 19.7314 2.90092 19.7303C2.90068 19.7296 2.90034 19.7283 2.90015 19.7261C2.89996 19.7239 2.89975 19.7189 2.90095 19.7106L1.11933 19.454C0.943446 20.6753 1.93883 21.5833 3.02305 21.5833V19.7833ZM2.90095 19.7106C3.04363 18.7199 3.40723 17.2565 4.30049 16.0597C5.16006 14.9081 6.54739 13.9463 8.91505 13.9463V12.1463C5.95589 12.1463 4.04303 13.3953 2.85797 14.9831C1.7066 16.5257 1.28115 18.3304 1.11933 19.454L2.90095 19.7106Z" fill="#222222"/>
<path d="M15.8806 19.8642L14.9899 19.9937L15.102 20.7642H15.8806V19.8642ZM22.9935 18.6599L22.1174 18.8659L22.9935 18.6599ZM14.4761 15.6132L13.7239 15.1189L13.4149 15.5892L13.7024 16.073L14.4761 15.6132ZM21.9851 18.9642H15.8806V20.7642H21.9851V18.9642ZM22.1174 18.8659C22.1219 18.8851 22.1198 18.8935 22.1192 18.8959C22.1182 18.8999 22.1154 18.9073 22.1071 18.9171C22.09 18.9371 22.051 18.9642 21.9851 18.9642V20.7642C23.1493 20.7642 24.1686 19.7253 23.8696 18.4539L22.1174 18.8659ZM18.1145 14.4C19.3571 14.4 20.223 15.0192 20.8678 15.9142C21.5307 16.8342 21.9119 17.992 22.1174 18.8659L23.8696 18.4539C23.6413 17.4828 23.1919 16.0606 22.3282 14.8619C21.4465 13.6382 20.0898 12.6 18.1145 12.6V14.4ZM15.2282 16.1075C15.8863 15.106 16.7901 14.4 18.1145 14.4V12.6C15.9962 12.6 14.5966 13.7911 13.7239 15.1189L15.2282 16.1075ZM13.7024 16.073C14.4666 17.3591 14.8257 18.8647 14.9899 19.9937L16.7712 19.7346C16.5909 18.4954 16.1849 16.7271 15.2498 15.1534L13.7024 16.073Z" fill="#222222"/>
</svg>
