<svg width="24" height="25" viewBox="0 0 24 25" fill="none" xmlns="http://www.w3.org/2000/svg">
<path d="M3.59361 21.4856C2.86884 21.4856 2.25538 21.2345 1.75323 20.7324C1.25108 20.2302 1 19.6168 1 18.892V9.45623C1 8.73146 1.25108 8.118 1.75323 7.61584C2.25538 7.11369 2.86884 6.86262 3.59361 6.86262H7.89776C7.89776 5.79591 8.27485 4.88546 9.02904 4.13127C9.78322 3.37709 10.6937 3 11.7604 3C12.8271 3 13.7375 3.37709 14.4917 4.13127C15.2459 4.88546 15.623 5.79591 15.623 6.86262H19.9272C20.6519 6.86262 21.2654 7.11369 21.7675 7.61584C22.2697 8.118 22.5208 8.73146 22.5208 9.45623V18.892C22.5208 19.6168 22.2697 20.2302 21.7675 20.7324C21.2654 21.2345 20.6519 21.4856 19.9272 21.4856H3.59361ZM18.7134 19.3335H19.9272C20.056 19.3335 20.1618 19.2922 20.2446 19.2094C20.3273 19.1267 20.3687 19.0209 20.3687 18.892V9.45623C20.3687 9.32734 20.3273 9.22153 20.2446 9.1388C20.1618 9.05606 20.056 9.01469 19.9272 9.01469H18.7134V19.3335ZM9.6083 6.86262H13.9125C13.9125 6.24091 13.7092 5.7268 13.3027 5.3203C12.8962 4.91379 12.3821 4.71054 11.7604 4.71054C11.1387 4.71054 10.6246 4.91379 10.2181 5.3203C9.81156 5.7268 9.6083 6.24091 9.6083 6.86262ZM4.80738 19.3335V9.01469H3.59361C3.46472 9.01469 3.35891 9.05606 3.27618 9.1388C3.19344 9.22153 3.15208 9.32734 3.15208 9.45623V18.892C3.15208 19.0209 3.19344 19.1267 3.27618 19.2094C3.35891 19.2922 3.46472 19.3335 3.59361 19.3335H4.80738ZM6.51828 9.01469V19.3335H17.0025V9.01469H6.51828Z" fill="#33363F"/>
</svg>
