<svg width="24" height="25" viewBox="0 0 24 25" fill="none" xmlns="http://www.w3.org/2000/svg">
<path d="M20.1818 10.5909C20.1818 17.2727 11.5909 23 11.5909 23C11.5909 23 3 17.2727 3 10.5909C3 8.31246 3.90511 6.12733 5.51622 4.51622C7.12733 2.90511 9.31246 2 11.5909 2C13.8694 2 16.0545 2.90511 17.6656 4.51622C19.2767 6.12733 20.1818 8.31246 20.1818 10.5909Z" stroke="#222222" stroke-width="1.5" stroke-linecap="round" stroke-linejoin="round"/>
<path d="M11.5907 12.9773C13.1722 12.9773 14.4543 11.6952 14.4543 10.1136C14.4543 8.53209 13.1722 7.25 11.5907 7.25C10.0091 7.25 8.72705 8.53209 8.72705 10.1136C8.72705 11.6952 10.0091 12.9773 11.5907 12.9773Z" stroke="#222222" stroke-width="1.5" stroke-linecap="round" stroke-linejoin="round"/>
</svg>
