<svg width="24" height="25" viewBox="0 0 24 25" fill="none" xmlns="http://www.w3.org/2000/svg">
<path d="M12.1769 14.6176H12.4061L12.426 14.3893L12.6351 11.9843C12.8953 10.1239 13.0429 9.0416 13.0429 8.3519C13.0429 8.02725 12.9556 7.74379 12.7598 7.54096C12.5628 7.33696 12.2903 7.25 11.9934 7.25C11.7013 7.25 11.4322 7.33801 11.2375 7.54204C11.0443 7.74454 10.9571 8.02724 10.9571 8.3519C10.9571 9.04209 11.1047 10.1236 11.3778 11.9838L11.5607 14.3866L11.5782 14.6176H11.8099H12.1769ZM10.8784 16.635C10.8784 17.2424 11.368 17.75 11.9934 17.75C12.6451 17.75 13.1215 17.2424 13.1215 16.635C13.1215 16.0176 12.635 15.5462 11.9934 15.5462C11.378 15.5462 10.8784 16.0176 10.8784 16.635Z" fill="#222222" stroke="#222222" stroke-width="0.5"/>
<circle cx="12" cy="12.5" r="8.25" stroke="#222222" stroke-width="1.5"/>
</svg>
