<svg width="24" height="25" viewBox="0 0 24 25" fill="none" xmlns="http://www.w3.org/2000/svg">
<path d="M14.1361 3.86144L15.1312 3.76194L14.1361 3.86144ZM13.9838 3.04161L13.095 3.5V3.5L13.9838 3.04161ZM14.4311 5.31793L15.2261 4.71141L15.2261 4.71141L14.4311 5.31793ZM15.3595 5.70248L15.2261 4.71141L15.3595 5.70248ZM16.5979 4.88113L17.2311 5.65509L17.2311 5.65509L16.5979 4.88113ZM17.2853 4.40918L17.5896 5.36175L17.2853 4.40918ZM17.9872 4.44419L18.3848 3.52663L18.3848 3.52663L17.9872 4.44419ZM18.6243 4.9822L17.9172 5.6893L17.9172 5.68931L18.6243 4.9822ZM19.5178 5.87567L20.2249 5.16856L20.2249 5.16856L19.5178 5.87567ZM20.0558 6.51275L20.9733 6.11517L20.9733 6.11516L20.0558 6.51275ZM20.0908 7.21464L21.0434 7.51895L21.0434 7.51894L20.0908 7.21464ZM19.6188 7.9021L18.8449 7.26886L18.8449 7.26886L19.6188 7.9021ZM18.7975 9.14056L17.8064 9.00724L17.8064 9.00725L18.7975 9.14056ZM19.182 10.0689L18.5755 10.864L18.5755 10.864L19.182 10.0689ZM20.6385 10.3639L20.738 9.36882L20.6385 10.3639ZM21.4584 10.5162L21.9168 9.6275L21.9168 9.6275L21.4584 10.5162ZM21.9299 11.0373L22.8599 10.6696L22.8599 10.6696L21.9299 11.0373ZM21.93 13.9626L21 13.595L21 13.595L21.93 13.9626ZM21.4583 14.4838L21.9166 15.3726L21.9166 15.3726L21.4583 14.4838ZM20.6386 14.6361L20.5391 13.6411L20.5065 13.6444L20.4742 13.6497L20.6386 14.6361ZM20.6386 14.6361L20.7381 15.6312L20.7707 15.6279L20.803 15.6225L20.6386 14.6361ZM19.1825 14.9309L18.5762 14.1357L18.5762 14.1357L19.1825 14.9309ZM18.7979 15.8596L17.8068 15.9931V15.9931L18.7979 15.8596ZM19.619 17.0976L18.845 17.7308H18.845L19.619 17.0976ZM20.0908 17.7848L19.1383 18.0892V18.0892L20.0908 17.7848ZM20.0558 18.4869L19.1383 18.0892L19.1383 18.0892L20.0558 18.4869ZM19.5179 19.1238L20.225 19.8309H20.225L19.5179 19.1238ZM18.6243 20.0174L17.9172 19.3102L17.9172 19.3103L18.6243 20.0174ZM17.9873 20.5554L18.3849 21.4729L18.3849 21.4729L17.9873 20.5554ZM17.2854 20.5904L16.981 21.5429L16.981 21.5429L17.2854 20.5904ZM16.5979 20.1184L17.2312 19.3444L17.2226 19.3376L16.5979 20.1184ZM16.5979 20.1184L15.9646 20.8924L15.9732 20.8993L16.5979 20.1184ZM15.3595 19.2971L15.4928 18.306H15.4928L15.3595 19.2971ZM14.4311 19.6816L15.2262 20.2882L15.2262 20.2881L14.4311 19.6816ZM14.1362 21.1383L13.1411 21.0388V21.0388L14.1362 21.1383ZM13.9837 21.9585L13.095 21.5L13.095 21.5L13.9837 21.9585ZM13.4628 22.4299L13.095 21.5L13.095 21.5L13.4628 22.4299ZM10.5373 22.4299L10.905 21.5L10.5373 22.4299ZM10.0162 21.9584L10.905 21.5H10.905L10.0162 21.9584ZM9.86385 21.1385L8.86882 21.2381V21.2381L9.86385 21.1385ZM9.56892 19.682L8.77387 20.2885L8.77387 20.2885L9.56892 19.682ZM8.64057 19.2975L8.50728 18.3064H8.50727L8.64057 19.2975ZM7.40208 20.1189L6.76884 19.3449L6.753 19.3579L6.73771 19.3714L7.40208 20.1189ZM7.40206 20.1189L8.0353 20.8928L8.05113 20.8799L8.06643 20.8663L7.40206 20.1189ZM6.71458 20.5908L7.01887 21.5434H7.01887L6.71458 20.5908ZM6.01272 20.5558L5.61515 21.4734H5.61515L6.01272 20.5558ZM5.37561 20.0178L6.08271 19.3107H6.08271L5.37561 20.0178ZM4.48217 19.1243L3.77506 19.8315L3.77506 19.8315L4.48217 19.1243ZM3.94414 18.4873L4.86171 18.0897L4.86171 18.0897L3.94414 18.4873ZM3.90913 17.7854L4.86171 18.0897L4.86171 18.0897L3.90913 17.7854ZM4.3811 17.0979L5.15506 17.7311H5.15506L4.3811 17.0979ZM5.20247 15.8594L6.19355 15.9928L5.20247 15.8594ZM4.81792 14.9311L5.42445 14.136L5.42445 14.136L4.81792 14.9311ZM3.36143 14.6361L3.26193 15.6312H3.26193L3.36143 14.6361ZM2.54161 14.4838L3 13.595H3L2.54161 14.4838ZM2.07005 13.9627L1.14009 14.3304L1.14009 14.3304L2.07005 13.9627ZM2.07008 11.0372L1.14017 10.6694L1.14017 10.6694L2.07008 11.0372ZM2.54152 10.5163L2.08305 9.62757L2.08305 9.62757L2.54152 10.5163ZM3.36155 10.3638V9.36384H3.31167L3.26205 9.36881L3.36155 10.3638ZM3.36156 10.3638V11.3638H3.41143L3.46106 11.3589L3.36156 10.3638ZM4.81842 10.0688L4.21178 9.27383L4.21177 9.27383L4.81842 10.0688ZM5.20287 9.14066L6.19396 9.00749L6.19396 9.00749L5.20287 9.14066ZM4.38128 7.90182L5.15523 7.26858H5.15523L4.38128 7.90182ZM3.90914 7.21405L4.86175 6.90988L4.86175 6.90988L3.90914 7.21405ZM3.94413 6.51243L3.02651 6.11498L3.02651 6.11498L3.94413 6.51243ZM4.48233 5.87509L5.18944 6.5822H5.18944L4.48233 5.87509ZM5.37565 4.98177L4.66855 4.27466V4.27466L5.37565 4.98177ZM6.01277 4.44373L5.6152 3.52615L5.6152 3.52616L6.01277 4.44373ZM6.71463 4.40872L7.01892 3.45614V3.45614L6.71463 4.40872ZM7.4022 4.88076L8.03543 4.10681V4.10681L7.4022 4.88076ZM8.64044 5.70207L8.77391 4.71101L8.64044 5.70207ZM9.56907 5.31742L8.77391 4.71101L8.77391 4.71101L9.56907 5.31742ZM9.86387 3.86131L10.8589 3.96081V3.96081L9.86387 3.86131ZM10.0162 3.0417L9.12739 2.58341L9.12739 2.58341L10.0162 3.0417ZM10.5374 2.57001L10.905 3.5L10.905 3.5L10.5374 2.57001ZM13.4627 2.57005L13.8304 1.6401V1.6401L13.4627 2.57005ZM15.1312 3.76194C15.1108 3.55831 15.0912 3.35693 15.0626 3.1868C15.0324 3.00684 14.9828 2.79705 14.8725 2.58322L13.095 3.5C13.0721 3.45549 13.0769 3.43878 13.0902 3.51798C13.1052 3.60701 13.1181 3.73089 13.1411 3.96094L15.1312 3.76194ZM15.2261 4.71141C15.2894 4.79433 15.2693 4.83101 15.2342 4.63595C15.2008 4.45045 15.1739 4.18915 15.1312 3.76194L13.1411 3.96094C13.1805 4.35459 13.2152 4.70895 13.2658 4.99017C13.3147 5.26184 13.4009 5.61633 13.636 5.92445L15.2261 4.71141ZM15.2261 4.71141L15.2261 4.71141L13.636 5.92444C14.0718 6.49575 14.7806 6.78935 15.4928 6.69355L15.2261 4.71141ZM15.9646 4.10717C15.6323 4.37905 15.4286 4.54481 15.2738 4.65238C15.1111 4.76548 15.1228 4.72531 15.2261 4.71141L15.4928 6.69355C15.8768 6.64188 16.1885 6.45223 16.4152 6.2947C16.6498 6.13163 16.9249 5.9056 17.2311 5.65509L15.9646 4.10717ZM16.981 3.45661C16.7518 3.52983 16.5684 3.64308 16.4198 3.74897C16.2793 3.84907 16.123 3.97759 15.9646 4.10717L17.2311 5.65509C17.41 5.50869 17.5068 5.43022 17.5803 5.37784C17.6457 5.33124 17.6373 5.34651 17.5896 5.36175L16.981 3.45661ZM18.3848 3.52663C17.9408 3.33421 17.442 3.30934 16.981 3.45661L17.5896 5.36175L17.5896 5.36175L18.3848 3.52663ZM19.3314 4.27509C19.1867 4.1304 19.044 3.98696 18.9142 3.87338C18.7768 3.75323 18.6056 3.62228 18.3848 3.52663L17.5896 5.36175C17.5437 5.34184 17.5369 5.32581 17.5973 5.37869C17.6653 5.43813 17.7537 5.52583 17.9172 5.6893L19.3314 4.27509ZM20.2249 5.16856L19.3314 4.27509L17.9172 5.68931L18.8107 6.58277L20.2249 5.16856ZM20.9733 6.11516C20.8777 5.89441 20.7467 5.72316 20.6266 5.58581C20.513 5.45597 20.3696 5.31326 20.2249 5.16856L18.8106 6.58277C18.9741 6.74626 19.0618 6.83469 19.1213 6.90264C19.1742 6.96308 19.1581 6.95629 19.1382 6.91034L20.9733 6.11516ZM21.0434 7.51894C21.1906 7.05797 21.1658 6.55922 20.9733 6.11517L19.1382 6.91034L19.1382 6.91034L21.0434 7.51894ZM20.3928 8.53534C20.5224 8.37696 20.6509 8.22069 20.751 8.08019C20.8569 7.93156 20.9701 7.74814 21.0434 7.51895L19.1382 6.91033C19.1535 6.86263 19.1687 6.85427 19.1221 6.91968C19.0697 6.9932 18.9913 7.08992 18.8449 7.26886L20.3928 8.53534ZM19.7885 9.27387C19.7746 9.37723 19.7345 9.38894 19.8476 9.22619C19.9551 9.07141 20.1209 8.86764 20.3928 8.53534L18.8449 7.26886C18.5943 7.57506 18.3683 7.85016 18.2052 8.08481C18.0477 8.31148 17.8581 8.62317 17.8064 9.00724L19.7885 9.27387ZM19.7885 9.27387V9.27386L17.8064 9.00725C17.7106 9.71938 18.0042 10.4282 18.5755 10.864L19.7885 9.27387ZM20.738 9.36882C20.3108 9.32609 20.0495 9.29922 19.864 9.26584C19.6689 9.23073 19.7056 9.2106 19.7885 9.27387L18.5755 10.864C18.8836 11.099 19.2381 11.1853 19.5098 11.2342C19.791 11.2848 20.1454 11.3195 20.539 11.3589L20.738 9.36882ZM21.9168 9.6275C21.703 9.51721 21.4932 9.46759 21.3132 9.43737C21.1431 9.4088 20.9417 9.38918 20.738 9.36882L20.539 11.3589C20.7691 11.3819 20.893 11.3948 20.982 11.4098C21.0612 11.4231 21.0445 11.4279 21 11.405L21.9168 9.6275ZM22.8599 10.6696C22.682 10.2196 22.3469 9.84933 21.9168 9.6275L21 11.405L21 11.405L22.8599 10.6696ZM23 11.8682C23 11.6636 23.0005 11.4613 22.989 11.2891C22.9769 11.107 22.9484 10.8933 22.8599 10.6696L21 11.405C20.9816 11.3584 20.9881 11.3423 20.9935 11.4224C20.9995 11.5125 21 11.637 21 11.8682H23ZM23 13.1319V11.8682H21V13.1319H23ZM22.86 14.3302C22.9484 14.1065 22.9769 13.8929 22.989 13.7108C23.0005 13.5388 23 13.3365 23 13.1319H21C21 13.363 20.9995 13.4875 20.9935 13.5776C20.9881 13.6577 20.9816 13.6416 21 13.595L22.86 14.3302ZM21.9166 15.3726C22.3469 15.1507 22.682 14.7804 22.86 14.3302L21 13.595V13.595L21.9166 15.3726ZM20.7381 15.6312C20.9417 15.6108 21.1431 15.5912 21.3132 15.5626C21.4931 15.5324 21.7028 15.4828 21.9166 15.3726L21 13.595C21.0445 13.5721 21.0612 13.577 20.982 13.5902C20.893 13.6052 20.7691 13.6181 20.5391 13.6411L20.7381 15.6312ZM20.803 15.6225L20.803 15.6225L20.4742 13.6497L20.4742 13.6497L20.803 15.6225ZM19.7889 15.7261C19.706 15.7893 19.6693 15.7692 19.8644 15.7341C20.0498 15.7007 20.311 15.6739 20.7381 15.6312L20.5391 13.6411C20.1456 13.6805 19.7913 13.7151 19.5102 13.7657C19.2386 13.8146 18.8842 13.9008 18.5762 14.1357L19.7889 15.7261ZM19.7889 15.7261L19.7889 15.7261L18.5762 14.1357C18.0046 14.5716 17.7108 15.2807 17.8068 15.9931L19.7889 15.7261ZM20.3929 16.4643C20.1212 16.1322 19.9555 15.9285 19.8479 15.7738C19.7348 15.6111 19.775 15.6228 19.7889 15.7261L17.8068 15.9931C17.8585 16.377 18.0481 16.6886 18.2056 16.9152C18.3686 17.1497 18.5946 17.4247 18.845 17.7308L20.3929 16.4643ZM21.0433 17.4803C20.9701 17.2513 20.8569 17.0679 20.751 16.9193C20.651 16.7789 20.5225 16.6227 20.3929 16.4643L18.845 17.7308C18.9914 17.9097 19.0698 18.0064 19.1222 18.0799C19.1688 18.1453 19.1535 18.1369 19.1383 18.0892L21.0433 17.4803ZM20.9733 18.8846C21.1658 18.4404 21.1907 17.9415 21.0433 17.4803L19.1383 18.0892L19.1383 18.0892L20.9733 18.8846ZM20.225 19.8309C20.3697 19.6862 20.5131 19.5436 20.6266 19.4138C20.7467 19.2765 20.8776 19.1053 20.9733 18.8846L19.1383 18.0892C19.1582 18.0433 19.1742 18.0365 19.1213 18.0969C19.0619 18.1648 18.9742 18.2532 18.8108 18.4167L20.225 19.8309ZM19.3314 20.7245L20.225 19.8309L18.8108 18.4167L17.9172 19.3102L19.3314 20.7245ZM18.3849 21.4729C18.6056 21.3773 18.7769 21.2463 18.9142 21.1262C19.044 21.0126 19.1867 20.8692 19.3314 20.7245L17.9172 19.3103C17.7537 19.4737 17.6653 19.5614 17.5974 19.6209C17.5369 19.6737 17.5437 19.6577 17.5897 19.6378L18.3849 21.4729ZM16.981 21.5429C17.442 21.6902 17.9408 21.6653 18.3849 21.4729L17.5897 19.6378H17.5897L16.981 21.5429ZM15.9647 20.8924C16.1231 21.022 16.2793 21.1505 16.4198 21.2506C16.5684 21.3565 16.7519 21.4697 16.981 21.5429L17.5897 19.6378C17.6374 19.653 17.6457 19.6683 17.5803 19.6217C17.5068 19.5693 17.4101 19.4909 17.2312 19.3445L15.9647 20.8924ZM15.9732 20.8993L15.9732 20.8993L17.2226 19.3376L17.2226 19.3375L15.9732 20.8993ZM15.2262 20.2881C15.1228 20.2742 15.1111 20.2341 15.2738 20.3472C15.4286 20.4547 15.6324 20.6205 15.9647 20.8924L17.2311 19.3445C16.925 19.0939 16.6499 18.8679 16.4152 18.7048C16.1886 18.5473 15.8769 18.3577 15.4928 18.306L15.2262 20.2881ZM15.2262 20.2881H15.2262L15.4928 18.306C14.7807 18.2102 14.0719 18.5038 13.636 19.0751L15.2262 20.2881ZM15.1312 21.2378C15.1739 20.8105 15.2008 20.5492 15.2342 20.3636C15.2693 20.1685 15.2894 20.2052 15.2262 20.2882L13.636 19.0751C13.401 19.3832 13.3147 19.7378 13.2658 20.0094C13.2152 20.2907 13.1805 20.6451 13.1411 21.0388L15.1312 21.2378ZM14.8724 22.417C14.9828 22.2031 15.0324 21.9932 15.0626 21.8132C15.0912 21.643 15.1108 21.4415 15.1312 21.2378L13.1411 21.0388C13.1181 21.269 13.1052 21.3929 13.0902 21.482C13.0769 21.5612 13.072 21.5445 13.095 21.5L14.8724 22.417ZM13.8306 23.3598C14.2805 23.1819 14.6506 22.8469 14.8724 22.417L13.095 21.5L13.095 21.5L13.8306 23.3598ZM12.6316 23.5C12.8363 23.5 13.0387 23.5005 13.2109 23.489C13.393 23.4768 13.6068 23.4483 13.8306 23.3598L13.095 21.5C13.1416 21.4816 13.1577 21.4881 13.0776 21.4935C12.9875 21.4995 12.8629 21.5 12.6316 21.5V23.5ZM11.3682 23.5H12.6316V21.5H11.3682V23.5ZM10.1696 23.3599C10.3933 23.4484 10.607 23.4769 10.7891 23.489C10.9613 23.5005 11.1636 23.5 11.3682 23.5V21.5C11.137 21.5 11.0125 21.4995 10.9224 21.4935C10.8423 21.4881 10.8584 21.4816 10.905 21.5L10.1696 23.3599ZM9.1275 22.4168C9.34933 22.8469 9.71958 23.182 10.1696 23.3599L10.905 21.5L9.1275 22.4168ZM8.86882 21.2381C8.88918 21.4417 8.9088 21.6431 8.93737 21.8132C8.96759 21.9932 9.01721 22.203 9.1275 22.4168L10.905 21.5C10.9279 21.5445 10.9231 21.5612 10.9098 21.482C10.8948 21.393 10.8819 21.2691 10.8589 21.039L8.86882 21.2381ZM8.77387 20.2885C8.7106 20.2056 8.73073 20.1689 8.76584 20.364C8.79922 20.5495 8.82609 20.8108 8.86882 21.2381L10.8589 21.039C10.8195 20.6454 10.7848 20.291 10.7342 20.0098C10.6853 19.7381 10.599 19.3836 10.364 19.0755L8.77387 20.2885ZM8.77387 20.2885L10.364 19.0755C9.92815 18.5042 9.21939 18.2106 8.50728 18.3064L8.77387 20.2885ZM8.03531 20.8928C8.36763 20.6209 8.5714 20.4551 8.72619 20.3476C8.88895 20.2345 8.87724 20.2746 8.77387 20.2885L8.50727 18.3064C8.12318 18.358 7.81149 18.5477 7.58481 18.7052C7.35015 18.8683 7.07504 19.0944 6.76884 19.3449L8.03531 20.8928ZM8.06643 20.8663L8.06644 20.8663L6.73771 19.3714L6.7377 19.3715L8.06643 20.8663ZM7.01887 21.5434C7.24807 21.4702 7.4315 21.3569 7.58013 21.251C7.72064 21.1509 7.87691 21.0224 8.0353 20.8928L6.76883 19.3449C6.58988 19.4913 6.49316 19.5698 6.41963 19.6222C6.35422 19.6688 6.36258 19.6535 6.41029 19.6383L7.01887 21.5434ZM5.61515 21.4734C6.05919 21.6658 6.55791 21.6907 7.01887 21.5434L6.41029 19.6383L6.41029 19.6383L5.61515 21.4734ZM4.6685 20.7249C4.81321 20.8696 4.95592 21.013 5.08577 21.1266C5.22313 21.2468 5.39438 21.3777 5.61515 21.4734L6.41029 19.6383C6.45624 19.6582 6.46304 19.6742 6.40259 19.6213C6.33464 19.5619 6.2462 19.4742 6.08271 19.3107L4.6685 20.7249ZM3.77506 19.8315L4.6685 20.7249L6.08271 19.3107L5.18927 18.4172L3.77506 19.8315ZM3.02657 18.8848C3.12223 19.1056 3.25318 19.2768 3.37333 19.4142C3.48692 19.544 3.63036 19.6868 3.77506 19.8315L5.18928 18.4172C5.02579 18.2538 4.93809 18.1653 4.87864 18.0974C4.82577 18.0369 4.8418 18.0437 4.86171 18.0897L3.02657 18.8848ZM2.95656 17.4811C2.8093 17.9421 2.83417 18.4408 3.02657 18.8848L4.86171 18.0897V18.0897L2.95656 17.4811ZM3.60715 16.4647C3.47756 16.623 3.34903 16.7793 3.24892 16.9198C3.14303 17.0684 3.02977 17.2519 2.95656 17.4811L4.86171 18.0897C4.84647 18.1374 4.83119 18.1457 4.87779 18.0803C4.93018 18.0068 5.00865 17.9101 5.15506 17.7311L3.60715 16.4647ZM4.2114 15.7261C4.2253 15.6228 4.26548 15.6111 4.15237 15.7738C4.0448 15.9286 3.87903 16.1324 3.60715 16.4647L5.15506 17.7311C5.40558 17.4249 5.63162 17.1498 5.79469 16.9152C5.95222 16.6885 6.14188 16.3768 6.19355 15.9928L4.2114 15.7261ZM4.2114 15.7261L4.2114 15.7261L6.19355 15.9928C6.28934 15.2806 5.99575 14.5718 5.42445 14.136L4.2114 15.7261ZM3.26193 15.6312C3.68915 15.6739 3.95044 15.7008 4.13595 15.7342C4.33101 15.7693 4.29432 15.7894 4.2114 15.7261L5.42445 14.136C5.11633 13.9009 4.76184 13.8147 4.49017 13.7658C4.20894 13.7152 3.85458 13.6805 3.46093 13.6411L3.26193 15.6312ZM2.08323 15.3725C2.29705 15.4828 2.50683 15.5324 2.6868 15.5626C2.85693 15.5912 3.05831 15.6108 3.26193 15.6312L3.46094 13.6411C3.23089 13.6181 3.10701 13.6052 3.01798 13.5902C2.93878 13.5769 2.95549 13.5721 3 13.595L2.08323 15.3725ZM1.14009 14.3304C1.31803 14.7804 1.65311 15.1507 2.08323 15.3725L3 13.595H3L1.14009 14.3304ZM1 13.1318C1 13.3364 0.999483 13.5387 1.01098 13.7109C1.02314 13.893 1.05163 14.1066 1.14009 14.3304L3 13.595C3.01841 13.6416 3.01188 13.6577 3.00653 13.5776C3.00052 13.4875 3 13.363 3 13.1318H1ZM1 11.8683V13.1318H3V11.8683H1ZM1.14017 10.6694C1.05166 10.8932 1.02315 11.107 1.01098 11.2891C0.999483 11.4613 1 11.6637 1 11.8683H3C3 11.6371 3.00052 11.5125 3.00654 11.4224C3.01189 11.3423 3.01842 11.3584 3 11.405L1.14017 10.6694ZM2.08305 9.62757C1.65308 9.84939 1.3181 10.2195 1.14017 10.6694L3 11.405L3 11.405L2.08305 9.62757ZM3.26205 9.36881C3.05837 9.38917 2.85694 9.4088 2.68677 9.43737C2.50676 9.4676 2.29692 9.51724 2.08305 9.62757L3 11.405C2.95548 11.428 2.93877 11.4231 3.01798 11.4098C3.10704 11.3948 3.23094 11.3819 3.46105 11.3589L3.26205 9.36881ZM3.36155 9.36384H3.36155V11.3638H3.36155V9.36384ZM3.36156 9.36384H3.36155V11.3638H3.36156V9.36384ZM4.21177 9.27383C4.29471 9.21055 4.33141 9.23069 4.1363 9.2658C3.95075 9.2992 3.68939 9.32607 3.26205 9.36881L3.46106 11.3589C3.85482 11.3195 4.20927 11.2848 4.49056 11.2342C4.76231 11.1853 5.1169 11.0989 5.42506 10.8638L4.21177 9.27383ZM4.21177 9.27383L4.21178 9.27383L5.42506 10.8638C5.99613 10.428 6.28962 9.71944 6.19396 9.00749L4.21177 9.27383ZM3.60732 8.53506C3.87929 8.86746 4.04511 9.0713 4.15272 9.22614C4.26586 9.38895 4.22567 9.37724 4.21177 9.27383L6.19396 9.00749C6.14234 8.6233 5.95263 8.31151 5.79506 8.08478C5.63195 7.85006 5.40584 7.57487 5.15523 7.26858L3.60732 8.53506ZM2.95652 7.51822C3.02973 7.74751 3.14303 7.93102 3.24896 8.0797C3.3491 8.22027 3.47768 8.3766 3.60732 8.53506L5.15523 7.26858C5.00876 7.08956 4.93026 6.99279 4.87785 6.91923C4.83123 6.85379 4.84651 6.86215 4.86175 6.90988L2.95652 7.51822ZM3.02651 6.11498C2.83424 6.55887 2.80938 7.0574 2.95652 7.51822L4.86175 6.90988L3.02651 6.11498ZM3.77523 5.16798C3.63047 5.31274 3.48698 5.4555 3.37335 5.58539C3.25316 5.7228 3.12217 5.89412 3.02651 6.11498L4.86175 6.90988C4.84184 6.95585 4.8258 6.96265 4.8787 6.90219C4.93816 6.83421 5.02589 6.74574 5.18944 6.5822L3.77523 5.16798ZM4.66855 4.27466L3.77523 5.16798L5.18944 6.5822L6.08276 5.68888L4.66855 4.27466ZM4.66855 4.27466L4.66855 4.27466L6.08276 5.68888L6.08276 5.68887L4.66855 4.27466ZM5.6152 3.52616C5.39443 3.62181 5.22317 3.75276 5.08582 3.87292C4.95597 3.98651 4.81325 4.12995 4.66855 4.27466L6.08276 5.68887C6.24625 5.52538 6.33469 5.43768 6.40264 5.37824C6.46309 5.32536 6.45629 5.34139 6.41034 5.3613L5.6152 3.52616ZM7.01892 3.45614C6.55795 3.30889 6.05923 3.33377 5.6152 3.52615L6.41033 5.3613H6.41034L7.01892 3.45614ZM8.03543 4.10681C7.87702 3.97719 7.72073 3.84865 7.58021 3.74853C7.43158 3.64264 7.24813 3.52936 7.01892 3.45614L6.41034 5.3613C6.36262 5.34606 6.35426 5.33078 6.41969 5.3774C6.49324 5.4298 6.58999 5.50829 6.76896 5.65472L8.03543 4.10681ZM8.77391 4.71101C8.87727 4.72493 8.88897 4.76509 8.72621 4.65198C8.57144 4.54441 8.36769 4.37865 8.03543 4.10681L6.76896 5.65472C7.07512 5.90521 7.35018 6.13122 7.58477 6.29427C7.81138 6.45176 8.123 6.64141 8.50697 6.69312L8.77391 4.71101ZM8.77391 4.71101L8.77391 4.71101L8.50697 6.69312C9.21932 6.78905 9.92836 6.49536 10.3642 5.92382L8.77391 4.71101ZM8.86883 3.7618C8.82612 4.1889 8.79926 4.45012 8.76589 4.63558C8.7308 4.83059 8.71068 4.79392 8.77391 4.71101L10.3642 5.92382C10.5992 5.61576 10.6854 5.26136 10.7343 4.98976C10.7849 4.70861 10.8196 4.35435 10.8589 3.96081L8.86883 3.7618ZM9.12739 2.58341C9.01716 2.79719 8.96756 3.00692 8.93736 3.18683C8.9088 3.35692 8.88919 3.55824 8.86883 3.7618L10.8589 3.96081C10.8819 3.73082 10.8948 3.60698 10.9098 3.51798C10.923 3.4388 10.9279 3.4555 10.905 3.5L9.12739 2.58341ZM10.1698 1.64002C9.71962 1.81796 9.34924 2.15315 9.12739 2.58341L10.905 3.5L10.905 3.5L10.1698 1.64002ZM11.3681 1.5C11.1635 1.5 10.9612 1.49948 10.7892 1.51097C10.6071 1.52313 10.3935 1.55161 10.1698 1.64002L10.905 3.5C10.8584 3.5184 10.8423 3.51188 10.9224 3.50653C11.0125 3.50052 11.137 3.5 11.3681 3.5V1.5ZM12.6318 1.5H11.3681V3.5H12.6318V1.5ZM13.8304 1.6401C13.6066 1.55163 13.393 1.52314 13.2109 1.51098C13.0387 1.49948 12.8364 1.5 12.6318 1.5V3.5C12.863 3.5 12.9875 3.50052 13.0776 3.50653C13.1577 3.51188 13.1416 3.51841 13.095 3.5L13.8304 1.6401ZM14.8725 2.58322C14.6507 2.15312 14.2804 1.81803 13.8304 1.6401L13.095 3.5L13.095 3.5L14.8725 2.58322ZM15 12.5C15 14.1569 13.6569 15.5 12 15.5V17.5C14.7614 17.5 17 15.2614 17 12.5H15ZM12 9.5C13.6569 9.5 15 10.8431 15 12.5H17C17 9.73858 14.7614 7.5 12 7.5V9.5ZM9 12.5C9 10.8431 10.3431 9.5 12 9.5V7.5C9.23858 7.5 7 9.73858 7 12.5H9ZM12 15.5C10.3431 15.5 9 14.1569 9 12.5H7C7 15.2614 9.23858 17.5 12 17.5V15.5Z" fill="#33363F"/>
</svg>
