<svg width="24" height="25" viewBox="0 0 24 25" fill="none" xmlns="http://www.w3.org/2000/svg">
<g clip-path="url(#clip0_9737_25410)">
<path d="M22.9794 9.39613L21.735 4.41587C21.5824 3.804 21.0324 3.375 20.4012 3.375H3.60013C2.969 3.375 2.419 3.804 2.265 4.41587L1.02062 9.39613C1.00687 9.44975 1 9.50612 1 9.5625C1 11.4572 2.46438 13 4.26562 13C5.312 13 6.24563 12.4789 6.84375 11.6704C7.44187 12.4789 8.3755 13 9.42188 13C10.4683 13 11.4019 12.4789 12 11.6704C12.5981 12.4789 13.5304 13 14.5781 13C15.6259 13 16.5581 12.4789 17.1562 11.6704C17.7544 12.4789 18.6866 13 19.7344 13C21.5356 13 23 11.4572 23 9.5625C23 9.50612 22.9931 9.44975 22.9794 9.39613Z" fill="black"/>
<path d="M19.7344 14.375C18.798 14.375 17.9084 14.089 17.1562 13.5665C15.652 14.6129 13.5042 14.6129 12 13.5665C10.4958 14.6129 8.348 14.6129 6.84375 13.5665C6.09162 14.089 5.202 14.375 4.26562 14.375C3.5905 14.375 2.95388 14.2169 2.375 13.9474V21.25C2.375 22.009 2.991 22.625 3.75 22.625H9.25V17.125H14.75V22.625H20.25C21.009 22.625 21.625 22.009 21.625 21.25V13.9474C21.0461 14.2169 20.4095 14.375 19.7344 14.375Z" fill="black"/>
</g>
<defs>
<clipPath id="clip0_9737_25410">
<rect width="22" height="22" fill="white" transform="translate(1 2)"/>
</clipPath>
</defs>
</svg>
