<svg width="24" height="25" viewBox="0 0 24 25" fill="none" xmlns="http://www.w3.org/2000/svg">
<g clip-path="url(#clip0_9737_25416)">
<path d="M15.2255 14.3496C15.2255 16.1282 13.7786 17.5751 12 17.5751C10.2214 17.5751 8.77503 16.1282 8.77503 14.3496C8.77503 12.5709 10.2214 11.124 12 11.124C13.7786 11.124 15.2255 12.5715 15.2255 14.3496ZM22 9.76948V18.9308C22 20.1521 21.0098 21.1423 19.7885 21.1423H4.21153C2.99021 21.1423 2 20.1521 2 18.9308V9.76948C2 8.54816 2.99021 7.55795 4.21153 7.55795H6.93172V6.79276C6.93172 5.72403 7.79753 4.85767 8.86681 4.85767H15.1332C16.2025 4.85767 17.0683 5.72403 17.0683 6.79276V7.5574H19.7885C21.0098 7.55795 22 8.54816 22 9.76948ZM16.8842 14.3496C16.8842 11.6565 14.6931 9.4654 12 9.4654C9.30746 9.4654 7.11638 11.6565 7.11638 14.3496C7.11638 17.0427 9.30746 19.2337 12 19.2337C14.6931 19.2337 16.8842 17.0427 16.8842 14.3496Z" fill="black"/>
</g>
<defs>
<clipPath id="clip0_9737_25416">
<rect width="20" height="20" fill="white" transform="translate(2 3)"/>
</clipPath>
</defs>
</svg>
