<svg width="24" height="25" viewBox="0 0 24 25" fill="none" xmlns="http://www.w3.org/2000/svg">
<path d="M11.0489 3.42705C11.3483 2.50574 12.6517 2.50574 12.9511 3.42705L14.4697 8.10081C14.6035 8.51284 14.9875 8.7918 15.4207 8.7918H20.335C21.3037 8.7918 21.7065 10.0314 20.9228 10.6008L16.947 13.4894C16.5966 13.744 16.4499 14.1954 16.5838 14.6074L18.1024 19.2812C18.4017 20.2025 17.3472 20.9686 16.5635 20.3992L12.5878 17.5106C12.2373 17.256 11.7627 17.256 11.4122 17.5106L7.43648 20.3992C6.65276 20.9686 5.59828 20.2025 5.89763 19.2812L7.41623 14.6074C7.55011 14.1954 7.40345 13.744 7.05296 13.4894L3.07722 10.6008C2.29351 10.0314 2.69628 8.7918 3.66501 8.7918H8.57929C9.01252 8.7918 9.39647 8.51284 9.53035 8.10081L11.0489 3.42705Z" fill="#222222"/>
</svg>
