<svg width="24" height="25" viewBox="0 0 24 25" fill="none" xmlns="http://www.w3.org/2000/svg">
<g clip-path="url(#clip0_7078_8983)">
<path d="M12.0002 0.50076C11.0071 0.485205 10.018 0.662173 9.09387 1.0265C8.16434 1.39294 7.31741 1.93909 6.59936 2.63388C5.88131 3.32867 5.30534 4.15806 4.90845 5.07507C4.51155 5.99209 4.30075 6.97927 4.28566 7.97839C4.28564 7.98174 4.28564 7.98509 4.28566 7.98844V12.4991C4.28567 12.7265 4.37598 12.9445 4.53673 13.1053C4.69748 13.2661 4.9155 13.3564 5.14283 13.3564C5.37017 13.3564 5.58819 13.2661 5.74894 13.1053C5.90969 12.9445 6 12.7265 6.00001 12.4991V8.00183C6.01169 7.22823 6.17485 6.46489 6.48217 5.75486C6.78946 5.04486 7.23538 4.40418 7.79136 3.8662C8.34734 3.32824 9.00364 2.90421 9.72335 2.62048C10.443 2.33676 11.21 2.19807 11.9835 2.21194C11.9946 2.21216 12.0058 2.21216 12.017 2.21194C12.7904 2.19807 13.5574 2.33676 14.2771 2.62048C14.9968 2.90421 15.6531 3.32824 16.2091 3.8662C16.7651 4.40417 17.2109 5.04484 17.5183 5.75486C17.8255 6.46502 17.9888 7.22831 18.0004 8.00183V12.4991C18.0004 12.7265 18.0908 12.9445 18.2515 13.1053C18.4123 13.2661 18.6303 13.3564 18.8576 13.3564C19.0849 13.3564 19.303 13.2661 19.4637 13.1053C19.6245 12.9445 19.7148 12.7265 19.7148 12.4991V7.98844C19.7148 7.98509 19.7148 7.98174 19.7148 7.97839C19.6997 6.97919 19.4887 5.99197 19.092 5.07507C18.6951 4.15808 18.1192 3.32868 17.4011 2.63388C16.683 1.93909 15.8361 1.39294 14.9066 1.0265C13.9824 0.662173 12.9934 0.485205 12.0002 0.50076Z" fill="black"/>
<path d="M2.57152 9.07007C1.88982 9.07007 1.23539 9.34147 0.753375 9.82352C0.271362 10.3056 0 10.9601 0 11.6419V15.0709C0 15.7527 0.271362 16.4072 0.753375 16.8893C1.23539 17.3713 1.88982 17.6427 2.57152 17.6427H4.28587C4.74022 17.6427 5.17668 17.4618 5.49796 17.1404C5.81928 16.8191 6.00021 16.3826 6.00021 15.9282V10.7846C6.00021 10.3302 5.81928 9.89369 5.49796 9.57237C5.17668 9.25102 4.74022 9.07007 4.28587 9.07007H2.57152ZM2.57152 10.7846H4.28587V15.9282H2.57152C2.34386 15.9282 2.12646 15.838 1.96547 15.677C1.80448 15.516 1.71435 15.2986 1.71435 15.0709V11.6419C1.71435 11.4142 1.80448 11.1968 1.96547 11.0358C2.12646 10.8748 2.34386 10.7846 2.57152 10.7846Z" fill="black"/>
<path d="M19.7148 9.06995C19.2605 9.06995 18.824 9.25101 18.5027 9.57225C18.1817 9.8935 18.0005 10.33 18.0005 10.7845V15.9281C18.0005 16.3826 18.1817 16.819 18.5027 17.1403C18.824 17.4615 19.2605 17.6426 19.7148 17.6426H21.4292C22.1109 17.6426 22.7653 17.3713 23.2473 16.8891C23.7292 16.4071 24.0007 15.7527 24.0007 15.0708V11.6417C24.0007 10.9599 23.7292 10.3054 23.2473 9.8234C22.7653 9.34123 22.1109 9.06995 21.4292 9.06995H19.7148ZM19.7148 10.7845H21.4292C21.6568 10.7845 21.8744 10.8748 22.0352 11.0356C22.1962 11.1967 22.2864 11.4141 22.2864 11.6417V15.0708C22.2864 15.2984 22.1962 15.5159 22.0352 15.6769C21.8744 15.8378 21.6568 15.9281 21.4292 15.9281H19.7148V10.7845Z" fill="black"/>
<path d="M18.8576 13.3562C18.6303 13.3562 18.4123 13.4465 18.2515 13.6073C18.0908 13.7681 18.0005 13.9861 18.0005 14.2135V18.0712C18.0005 18.7535 17.7296 19.4069 17.2471 19.8895C16.7645 20.3721 16.1113 20.643 15.429 20.643C15.2016 20.643 14.9836 20.7333 14.8228 20.8941C14.6621 21.0548 14.5718 21.2729 14.5718 21.5002C14.5718 21.7276 14.6621 21.9456 14.8228 22.1064C14.9836 22.2672 15.2016 22.3575 15.429 22.3575C16.5653 22.3575 17.6556 21.9054 18.4592 21.1017C19.2628 20.2981 19.7148 19.2076 19.7148 18.0712V14.2135C19.7148 13.9861 19.6245 13.7681 19.4638 13.6073C19.303 13.4465 19.085 13.3562 18.8576 13.3562Z" fill="black"/>
<path d="M10.7145 18.4998C9.9191 18.4998 9.15401 18.8147 8.59162 19.3771C8.02914 19.9396 7.71436 20.7048 7.71436 21.5002C7.71436 22.2956 8.02914 23.0608 8.59162 23.6233C9.15401 24.1857 9.9191 24.5006 10.7145 24.5006H13.286C14.0813 24.5006 14.8464 24.1857 15.4088 23.6233C15.9713 23.0608 16.2861 22.2956 16.2861 21.5002C16.2861 20.7048 15.9713 19.9396 15.4088 19.3771C14.8464 18.8147 14.0813 18.4998 13.286 18.4998H10.7145ZM10.7145 20.2143H13.286C13.6273 20.2143 13.9554 20.348 14.1967 20.5893C14.438 20.8306 14.5717 21.1589 14.5717 21.5002C14.5717 21.8415 14.438 22.1697 14.1967 22.411C13.9554 22.6524 13.6273 22.7861 13.286 22.7861H10.7145C10.3731 22.7861 10.0451 22.6524 9.80372 22.411C9.56244 22.1697 9.4287 21.8415 9.4287 21.5002C9.4287 21.1589 9.56244 20.8306 9.80372 20.5893C10.0451 20.348 10.3731 20.2143 10.7145 20.2143Z" fill="black"/>
</g>
<defs>
<clipPath id="clip0_7078_8983">
<rect width="24" height="24" fill="white" transform="translate(0 0.5)"/>
</clipPath>
</defs>
</svg>
