<svg width="24" height="25" viewBox="0 0 24 25" fill="none" xmlns="http://www.w3.org/2000/svg">
<path fill-rule="evenodd" clip-rule="evenodd" d="M5.16274 3.54004H18.8373C19.3656 3.54002 19.8189 3.54001 20.1918 3.57048C20.5847 3.60258 20.9721 3.67322 21.3439 3.86266C21.9008 4.14645 22.3536 4.59927 22.6374 5.15623C22.8269 5.52803 22.8975 5.9154 22.9296 6.30827C22.9601 6.68119 22.9601 7.13452 22.96 7.66276V9.00004C22.96 9.53023 22.5302 9.96004 22 9.96004C20.5972 9.96004 19.46 11.0972 19.46 12.5C19.46 13.9028 20.5972 15.04 22 15.04C22.5302 15.04 22.96 15.4698 22.96 16V17.3373C22.9601 17.8656 22.9601 18.3189 22.9296 18.6918C22.8975 19.0847 22.8269 19.4721 22.6374 19.8439C22.3536 20.4008 21.9008 20.8536 21.3439 21.1374C20.9721 21.3269 20.5847 21.3975 20.1918 21.4296C19.8189 21.4601 19.3656 21.4601 18.8373 21.46H5.16276C4.63453 21.4601 4.18119 21.4601 3.80827 21.4296C3.4154 21.3975 3.02803 21.3269 2.65623 21.1374C2.09927 20.8536 1.64645 20.4008 1.36266 19.8439C1.17322 19.4721 1.10258 19.0847 1.07048 18.6918C1.04001 18.3189 1.04002 17.8656 1.04004 17.3373L1.04004 16C1.04004 15.4698 1.46985 15.04 2.00004 15.04C3.40284 15.04 4.54004 13.9028 4.54004 12.5C4.54004 11.0972 3.40284 9.96004 2.00004 9.96004C1.46985 9.96004 1.04004 9.53023 1.04004 9.00004L1.04004 7.66274C1.04002 7.13451 1.04001 6.68119 1.07048 6.30827C1.10258 5.9154 1.17322 5.52803 1.36266 5.15623C1.64645 4.59927 2.09927 4.14645 2.65623 3.86266C3.02803 3.67322 3.4154 3.60258 3.80827 3.57048C4.18119 3.54001 4.63451 3.54002 5.16274 3.54004ZM3.96462 5.4841C3.69048 5.5065 3.58391 5.54485 3.52789 5.57339C3.3322 5.6731 3.1731 5.8322 3.07339 6.02789C3.04485 6.08391 3.0065 6.19048 2.9841 6.46462C2.96079 6.74996 2.96004 7.12415 2.96004 7.70004V8.14362C4.96182 8.58273 6.46004 10.3664 6.46004 12.5C6.46004 14.6337 4.96182 16.4174 2.96004 16.8565V17.3C2.96004 17.8759 2.96079 18.2501 2.9841 18.5355C3.0065 18.8096 3.04485 18.9162 3.07339 18.9722C3.1731 19.1679 3.3322 19.327 3.52789 19.4267C3.58391 19.4552 3.69048 19.4936 3.96462 19.516C4.24996 19.5393 4.62415 19.54 5.20004 19.54H18.8C19.3759 19.54 19.7501 19.5393 20.0355 19.516C20.3096 19.4936 20.4162 19.4552 20.4722 19.4267C20.6679 19.327 20.827 19.1679 20.9267 18.9722C20.9552 18.9162 20.9936 18.8096 21.016 18.5355C21.0393 18.2501 21.04 17.8759 21.04 17.3V16.8565C19.0383 16.4174 17.54 14.6337 17.54 12.5C17.54 10.3664 19.0383 8.58273 21.04 8.14362V7.70004C21.04 7.12415 21.0393 6.74996 21.016 6.46462C20.9936 6.19048 20.9552 6.08391 20.9267 6.02789C20.827 5.8322 20.6679 5.6731 20.4722 5.57339C20.4162 5.54485 20.3096 5.5065 20.0355 5.4841C19.7501 5.46079 19.3759 5.46004 18.8 5.46004H5.20004C4.62415 5.46004 4.24996 5.46079 3.96462 5.4841ZM10 6.54004C10.5302 6.54004 10.96 6.96985 10.96 7.50004V8.50004C10.96 9.03023 10.5302 9.46004 10 9.46004C9.46985 9.46004 9.04004 9.03023 9.04004 8.50004V7.50004C9.04004 6.96985 9.46985 6.54004 10 6.54004ZM10 11.04C10.5302 11.04 10.96 11.4698 10.96 12V13C10.96 13.5302 10.5302 13.96 10 13.96C9.46985 13.96 9.04004 13.5302 9.04004 13V12C9.04004 11.4698 9.46985 11.04 10 11.04ZM10 15.54C10.5302 15.54 10.96 15.9698 10.96 16.5V17.5C10.96 18.0302 10.5302 18.46 10 18.46C9.46985 18.46 9.04004 18.0302 9.04004 17.5V16.5C9.04004 15.9698 9.46985 15.54 10 15.54Z" fill="black"/>
</svg>
