<svg width="24" height="25" viewBox="0 0 24 25" fill="none" xmlns="http://www.w3.org/2000/svg">
<path d="M8.1902 9.01049C8.1902 9.53492 8.1902 10.0331 8.1902 10.5261C8.1902 10.6152 8.18591 10.7096 8.19878 10.7935C8.22882 11.0138 8.35756 11.1449 8.53351 11.1344C8.70517 11.1239 8.82962 10.9771 8.82962 10.7516C8.8382 10.2691 8.83391 9.78664 8.83391 9.30417C8.83391 9.21502 8.83391 9.12586 8.83391 9.01573C8.92403 9.01049 8.99269 9 9.06564 9C12.4558 9 15.8503 9 19.2405 9C20.322 9 20.9914 9.82335 20.9914 11.1449C20.9914 11.8476 20.9914 12.5504 20.9914 13.2531C20.9914 13.6255 20.8884 13.7566 20.588 13.7723C20.1203 13.7985 19.674 13.9139 19.2706 14.2128C18.7041 14.6376 18.4724 15.3403 18.6869 15.9801C18.8328 16.4207 19.1032 16.7353 19.4594 16.8926C19.807 17.0447 20.1761 17.1391 20.5451 17.2073C20.9185 17.2755 21 17.3489 21 17.7999C21 18.5026 21 19.2054 21 19.9081C20.9957 21.1353 20.3091 21.9849 19.2963 21.9953C18.6483 22.0058 18.0003 21.9953 17.348 21.9953C14.6058 21.9953 11.8593 21.9953 9.11714 21.9953C9.03131 21.9953 8.94548 21.9953 8.8382 21.9953C8.8382 21.4604 8.8382 20.957 8.8382 20.4535C8.8382 20.0497 8.7395 19.8609 8.52493 19.8609C8.30607 19.8557 8.19449 20.0602 8.19449 20.4692C8.19449 20.9675 8.19449 21.4657 8.19449 21.9953C8.10866 21.9953 8.03571 21.9953 7.96705 21.9953C6.90278 21.9953 5.83852 21.9953 4.77425 21.9953C3.68424 22.0111 3.00191 21.1825 3.00191 19.8557C3.00191 19.1529 3.00191 18.4502 3.00191 17.7475C3.00191 17.3909 3.09632 17.2597 3.39242 17.2388C3.9031 17.2126 4.38803 17.0762 4.81287 16.7091C5.22056 16.3577 5.47375 15.9015 5.37505 15.2512C5.31926 14.8788 5.13473 14.6009 4.89441 14.3754C4.48244 13.9926 4.00609 13.8143 3.49542 13.7775C3.07486 13.7566 3.00191 13.6727 3.00191 13.1482C3.00191 12.435 2.99762 11.727 3.00191 11.0138C3.01049 9.90202 3.67566 9.03147 4.58114 9.01573C5.77415 8.99476 6.96715 9.01049 8.1902 9.01049ZM8.83391 13.379C8.83391 13.1745 8.83391 12.9699 8.83391 12.7654C8.83391 12.7497 8.83391 12.7339 8.83391 12.7182C8.82103 12.477 8.70517 12.3196 8.53351 12.3091C8.35327 12.2987 8.20307 12.456 8.19878 12.7025C8.1902 13.1482 8.1902 13.5992 8.19878 14.0502C8.20307 14.2967 8.35327 14.4593 8.53351 14.4488C8.70517 14.4383 8.82962 14.281 8.83391 14.0398C8.8382 13.8195 8.83391 13.5992 8.83391 13.379ZM8.83391 17.6531C8.83391 17.4276 8.8382 17.1968 8.83391 16.9713C8.82533 16.7301 8.70517 16.578 8.52922 16.5727C8.34898 16.5675 8.20736 16.7091 8.19878 16.9451C8.18591 17.4066 8.18591 17.8733 8.19878 18.3348C8.20307 18.5656 8.35327 18.7072 8.53351 18.6967C8.70517 18.6862 8.82103 18.5394 8.82962 18.3138C8.8382 18.0936 8.83391 17.8733 8.83391 17.6531Z" fill="black"/>
<path d="M18 8C14.3333 8 10.6914 8 7 8C7.08249 7.94907 7.12373 7.91851 7.17323 7.89814C9.85002 6.64018 12.5227 5.38221 15.1995 4.12425C15.8594 3.81358 16.4244 4.09369 16.742 4.87291C17.1339 5.83549 17.5216 6.80315 17.9134 7.76572C17.9423 7.83703 17.967 7.90833 18 8Z" fill="black"/>
</svg>
