<svg width="24" height="25" viewBox="0 0 24 25" fill="none" xmlns="http://www.w3.org/2000/svg">
<g clip-path="url(#clip0_10098_45016)">
<path d="M18.9 12.5341V12.7307L19.0699 12.5645L22.6049 9.10651L22.6057 9.10577C23.5695 8.14299 24.1 6.86153 24.1 5.49902C24.1 4.13649 23.5695 2.85606 22.6057 1.89231C21.6429 0.92955 20.3615 0.399023 19 0.399023C17.6385 0.399023 16.3571 0.929555 15.3933 1.89228L15.3933 1.89231C13.4042 3.88141 13.4043 7.11674 15.3973 9.10876L15.3981 9.10952L18.9 12.5341ZM21.7573 2.74173L21.7573 2.74178C22.4945 3.47799 22.9 4.45752 22.9 5.50002C22.9 6.5424 22.4946 7.5208 21.7616 8.25396C21.7615 8.25408 21.7614 8.2542 21.7613 8.25431L19 10.9552L16.2417 8.25831C16.2416 8.25819 16.2415 8.25807 16.2413 8.25794C14.7208 6.73695 14.7209 4.26156 16.2417 2.74176C16.979 2.00548 17.9575 1.60002 19 1.60002C20.0425 1.60002 21.021 2.00549 21.7573 2.74173ZM5.77713 23.4752L5.74514 23.6H5.874H20.5C22.4852 23.6 24.1 21.9853 24.1 20C24.1 18.0148 22.4852 16.4 20.5 16.4H16.5H16.4V16.5C16.4 16.8365 16.3571 17.1631 16.2771 17.4752L16.2451 17.6H16.374H20.5C21.8228 17.6 22.9 18.6773 22.9 20C22.9 21.3228 21.8228 22.4 20.5 22.4H6H5.9V22.5C5.9 22.8365 5.85709 23.1631 5.77713 23.4752ZM8.626 17.6H8.75486L8.72287 17.4752C8.64291 17.1631 8.6 16.8365 8.6 16.5V16.4H8.5H5.5C4.17723 16.4 3.1 15.3228 3.1 14C3.1 12.6773 4.17723 11.6 5.5 11.6H15.124H15.3694L15.1939 11.4285L14.1709 10.4285L14.1418 10.4H14.101H5.5C3.51477 10.4 1.9 12.0148 1.9 14C1.9 15.9853 3.51477 17.6 5.5 17.6H8.626ZM2 20.4C0.841771 20.4 -0.1 21.3418 -0.1 22.5C-0.1 23.6583 0.841771 24.6 2 24.6C3.15823 24.6 4.1 23.6583 4.1 22.5C4.1 21.3418 3.15823 20.4 2 20.4ZM2 23.4C1.50423 23.4 1.1 22.9958 1.1 22.5C1.1 22.0043 1.50423 21.6 2 21.6C2.49577 21.6 2.9 22.0043 2.9 22.5C2.9 22.9958 2.49577 23.4 2 23.4ZM10.4 16.5C10.4 17.6583 11.3418 18.6 12.5 18.6C13.6582 18.6 14.6 17.6583 14.6 16.5C14.6 15.3418 13.6582 14.4 12.5 14.4C11.3418 14.4 10.4 15.3418 10.4 16.5ZM13.4 16.5C13.4 16.9958 12.9958 17.4 12.5 17.4C12.0042 17.4 11.6 16.9958 11.6 16.5C11.6 16.0043 12.0042 15.6 12.5 15.6C12.9958 15.6 13.4 16.0043 13.4 16.5Z" fill="black" stroke="black" stroke-width="0.2"/>
<path d="M19.001 6.28699C19.5533 6.28699 20.001 5.83927 20.001 5.28699C20.001 4.7347 19.5533 4.28699 19.001 4.28699C18.4487 4.28699 18.001 4.7347 18.001 5.28699C18.001 5.83927 18.4487 6.28699 19.001 6.28699Z" fill="black"/>
</g>
<defs>
<clipPath id="clip0_10098_45016">
<rect width="24" height="24" fill="white" transform="translate(0 0.5)"/>
</clipPath>
</defs>
</svg>
