<svg width="24" height="25" viewBox="0 0 24 25" fill="none" xmlns="http://www.w3.org/2000/svg">
<path d="M1.87 16.87H21.97C22.46 16.87 22.85 16.37 22.85 15.72V13.67C22.85 11.56 21.59 9.84 20.04 9.84H3.81C2.26 9.84 1 11.56 1 13.67V15.72C1 16.37 1.38 16.87 1.87 16.87ZM2.16 15.4V13.67C2.16 12.37 2.9 11.31 3.8 11.31H20.04C20.95 11.31 21.68 12.37 21.68 13.67V15.4H2.16Z" fill="#E5E3DC"/>
<path d="M22.88 18.78V18.76C22.8 18.06 22.35 17.55 21.82 17.55H2.10998C1.56998 17.55 1.11998 18.06 1.04998 18.77C1.03998 18.84 1.03998 19.7 1.04998 19.77C1.11998 20.47 1.54998 20.99 2.08998 21.01C2.12998 21.01 2.29998 21.03 2.41998 21.02C2.41998 21.03 2.40998 21.05 2.40998 21.07C2.25998 21.61 2.11998 22.17 1.99998 22.66C1.88998 23.09 1.95998 23.46 2.17998 23.73C2.32998 23.91 2.49998 24 2.67998 24C2.78998 24 2.90998 23.96 3.01998 23.89C3.26998 23.74 3.35998 23.46 3.42998 23.2C3.47998 23.01 3.52998 22.81 3.57998 22.62C3.69998 22.16 3.81998 21.69 3.92998 21.22C3.97998 21 4.01998 21 4.10998 21C6.55998 21.01 9.03998 21.01 11.45 21.01H13.19H14.91C16.7 21.01 17.08 21.01 19.85 21C19.95 21 19.98 21 20.03 21.22C20.17 21.84 20.34 22.51 20.57 23.32C20.69 23.77 21.01 24.04 21.36 23.97C21.7 23.91 21.96 23.58 22.01 23.14C22.03 22.91 21.98 22.71 21.94 22.54C21.9 22.4 21.87 22.26 21.83 22.12C21.74 21.77 21.65 21.41 21.56 21.05C21.55 21.02 21.55 21 21.54 20.99H21.84C21.85 20.99 21.86 20.99 21.87 20.99C22.4 20.97 22.84 20.45 22.91 19.76C22.89 19.71 22.89 18.92 22.88 18.78ZM21.69 19.06V19.41C21.69 19.57 21.6 19.68 21.52 19.68H2.31998C2.23998 19.68 2.14998 19.57 2.14998 19.41V19.06C2.14998 18.9 2.23998 18.79 2.31998 18.79H21.53C21.61 18.79 21.69 18.9 21.69 19.06Z" fill="#E5E3DC"/>
<path d="M3.4202 9.03C3.6202 9.3 3.8702 9.31 4.0702 9.31H4.0802C4.1202 9.32 19.7702 9.32 19.8102 9.32C20.3102 9.28 20.5902 8.9 20.5902 8.26C20.5802 7.56 20.5802 6.85 20.5802 6.17V6.16C20.5802 5.91 20.5802 5.67 20.5802 5.43C20.5802 5.08 20.5502 4.73 20.4902 4.39C20.3202 3.38 19.9202 2.53 19.3502 1.93C18.7702 1.32 18.0502 1 17.2502 1C15.2202 1 7.5602 1 6.6002 1C4.6402 1 3.2702 2.88 3.2702 5.56V6.04C3.2702 6.71 3.2702 8.24 3.2702 8.3C3.2602 8.51 3.2602 8.78 3.4202 9.03ZM19.4602 7.92H17.2202V7.83C17.2202 5.76 15.8402 4.08 14.1302 4.08H9.8002C8.0902 4.08 6.7102 5.76 6.7102 7.83V7.92H4.3802C4.3802 7.29 4.3802 6.66 4.3802 6.04V5.56C4.3802 3.68 5.2702 2.41 6.6002 2.41C7.5602 2.41 7.9802 2.41 8.7802 2.41H10.5702C10.5802 2.41 10.6002 2.41 10.6102 2.41H11.1502C13.1802 2.41 15.2102 2.41 17.2402 2.41C18.3202 2.41 19.1502 3.29 19.3902 4.7C19.4302 4.94 19.4502 5.18 19.4502 5.43C19.4502 5.68 19.4502 5.92 19.4502 6.17V6.18C19.4602 6.75 19.4602 7.34 19.4602 7.92ZM8.1602 7.51C8.2902 6.55 8.9702 5.82 9.8002 5.82H14.1302C14.9502 5.82 15.6402 6.55 15.7702 7.51H8.1602Z" fill="#E5E3DC"/>
</svg>
