<svg width="24" height="25" viewBox="0 0 24 25" fill="none" xmlns="http://www.w3.org/2000/svg">
<path fill-rule="evenodd" clip-rule="evenodd" d="M9.5 12.3775C9.00757 12.7721 8.61029 13.281 8.34839 13.8646L8.34352 13.8754C8.26605 14.048 8.20111 14.1928 8.14829 14.3038C8.10219 14.4008 8.03371 14.5417 7.94687 14.6632C7.82083 14.8396 7.65546 15.0347 7.414 15.191C7.17254 15.3472 6.92683 15.4182 6.71431 15.461C6.51342 15.5014 6.27177 15.5009 6.0642 15.5004H6.06419L6 15.5003C4.89543 15.5003 4 16.3958 4 17.5003C4 18.6049 4.89543 19.5003 6 19.5003H12H18C19.1046 19.5003 20 18.6049 20 17.5003C20 16.3958 19.1046 15.5003 18 15.5003L17.9358 15.5004H17.9358C17.7282 15.5009 17.4866 15.5014 17.2857 15.461C17.0732 15.4182 16.8275 15.3472 16.586 15.191C16.3445 15.0347 16.1792 14.8396 16.0531 14.6632C15.9663 14.5417 15.8978 14.4008 15.8517 14.3038C15.7989 14.1928 15.7339 14.048 15.6565 13.8754L15.6516 13.8646C15.3897 13.281 14.9924 12.7721 14.5 12.3775V10.0444C15.8201 10.6504 16.8818 11.7212 17.4763 13.0457C17.5599 13.232 17.6158 13.3563 17.6579 13.445C17.6683 13.4669 17.6767 13.4841 17.6835 13.4976L17.7032 13.4983C17.7668 13.5002 17.854 13.5003 18 13.5003C20.2091 13.5003 22 15.2912 22 17.5003C22 19.7095 20.2091 21.5003 18 21.5003H12H6C3.79086 21.5003 2 19.7095 2 17.5003C2 15.2912 3.79086 13.5003 6 13.5003C6.14598 13.5003 6.23318 13.5002 6.29677 13.4983L6.31654 13.4976C6.32326 13.4841 6.33167 13.4669 6.34206 13.445C6.38425 13.3563 6.44011 13.232 6.52373 13.0457C7.11818 11.7212 8.17993 10.6504 9.5 10.0444V12.3775ZM6.29756 13.534C6.29755 13.534 6.29761 13.5339 6.29774 13.5337L6.29777 13.5337L6.29756 13.534ZM17.7024 13.534C17.7024 13.534 17.7024 13.5339 17.7022 13.5337L17.7023 13.5337L17.7024 13.534Z" fill="#33363F"/>
<path d="M12 3.5L11.2929 2.79289L12 2.08579L12.7071 2.79289L12 3.5ZM13 13.5C13 14.0523 12.5523 14.5 12 14.5C11.4477 14.5 11 14.0523 11 13.5L13 13.5ZM7.29289 6.79289L11.2929 2.79289L12.7071 4.20711L8.70711 8.20711L7.29289 6.79289ZM12.7071 2.79289L16.7071 6.79289L15.2929 8.20711L11.2929 4.20711L12.7071 2.79289ZM13 3.5L13 13.5L11 13.5L11 3.5L13 3.5Z" fill="#33363F"/>
</svg>
